<svg id="eB7C5IicUOb1" xmlns="http://www.w3.org/2000/svg" xmlns:xlink="http://www.w3.org/1999/xlink" viewBox="0 0 3550 990" shape-rendering="geometricPrecision" text-rendering="geometricPrecision" project-id="2603e511b365447cb0405113cc437914" export-id="f9927451b29f415fbeb57c5c827947d4" cached="false">
<line x1="250" y1="295" x2="400" y2="324.8476" fill="none"/>
<line x1="550" y1="295" x2="400" y2="324.8476" fill="none"/><g>
<path d="M0,540v360c0,49.7056,40.2944,90,90,90h360C450,741.4719,248.5281,540,0,540Z" fill="currentColor"/>
<path d="M450,990h360c49.7056,0,90-40.2944,90-90v-360c-248.5281,0-450,201.4719-450,450Z" fill="currentColor"/>
<path d="M450,89.5428L0,0v540c248.5201,0,450-201.4801,450-450c0,248.5281,201.4719,450,450,450v-540L450,89.5428Z" fill="currentColor"/></g>
   <text
  dx="0"
  dy="0"
  font-family="Poppins"
  font-size="900"
  font-weight="600"
  transform="translate(1200 809.792359)"
  fill="currentColor"
  stroke-width="0"
>
  <tspan y="0" font-weight="600" stroke-width="0">matil</tspan>
</text>
</svg>
