<svg xmlns="http://www.w3.org/2000/svg" xmlns:xlink="http://www.w3.org/1999/xlink" width="1024" zoomAndPan="magnify" viewBox="0 0 768 767.999994" height="1024" preserveAspectRatio="xMidYMid meet" version="1.0"><defs><filter x="0%" y="0%" width="100%" height="100%" id="45d6f330e8"><feColorMatrix values="0 0 0 0 1 0 0 0 0 1 0 0 0 0 1 0 0 0 1 0" color-interpolation-filters="sRGB"/></filter><clipPath id="57dc9a6cce"><path d="M 0 115 L 479 115 L 479 653 L 0 653 Z M 0 115 " clip-rule="nonzero"/></clipPath><clipPath id="ce06c70bb1"><path d="M 461.339844 413.769531 L 52.09375 647.625 C 41.316406 653.78125 28.074219 653.738281 17.339844 647.507812 C 6.605469 641.277344 0 629.804688 0 617.390625 L 0 150.609375 C 0 138.195312 6.605469 126.722656 17.339844 120.492188 C 28.074219 114.261719 41.316406 114.21875 52.09375 120.375 L 461.339844 354.230469 C 472.019531 360.335938 478.613281 371.695312 478.613281 384 C 478.613281 396.304688 472.019531 407.664062 461.339844 413.769531 Z M 461.339844 413.769531 " clip-rule="nonzero"/></clipPath><mask id="af81699a45"><g filter="url(#45d6f330e8)"><rect x="-76.8" width="921.6" fill="#000000" y="-76.799999" height="921.599993" fill-opacity="0.7"/></g></mask><clipPath id="3be4c2f1c1"><path d="M 0.847656 25 L 480 25 L 480 563 L 0.847656 563 Z M 0.847656 25 " clip-rule="nonzero"/></clipPath><clipPath id="93546ea459"><path d="M 462.1875 323.769531 L 52.941406 557.625 C 42.164062 563.78125 28.925781 563.738281 18.1875 557.507812 C 7.453125 551.277344 0.847656 539.804688 0.847656 527.390625 L 0.847656 60.609375 C 0.847656 48.195312 7.453125 36.722656 18.1875 30.492188 C 28.925781 24.261719 42.164062 24.21875 52.941406 30.375 L 462.1875 264.230469 C 472.871094 270.335938 479.460938 281.695312 479.460938 294 C 479.460938 306.304688 472.871094 317.664062 462.1875 323.769531 Z M 462.1875 323.769531 " clip-rule="nonzero"/></clipPath><clipPath id="014478961b"><rect x="0" width="498" y="0" height="589"/></clipPath></defs><g clip-path="url(#57dc9a6cce)"><g clip-path="url(#ce06c70bb1)"><path fill="#11efe3" d="M 513.433594 90.609375 L 513.433594 678.25 L 0 678.25 L 0 90.609375 Z M 513.433594 90.609375 " fill-opacity="1" fill-rule="nonzero"/></g></g><g mask="url(#af81699a45)"><g transform="matrix(1, 0, 0, 1, 270, 90)"><g clip-path="url(#014478961b)"><g clip-path="url(#3be4c2f1c1)"><g clip-path="url(#93546ea459)"><path fill="#057dcd" d="M 514.28125 0.609375 L 514.28125 588.25 L 0.847656 588.25 L 0.847656 0.609375 Z M 514.28125 0.609375 " fill-opacity="1" fill-rule="nonzero"/></g></g></g></g></g></svg>