<svg xmlns="http://www.w3.org/2000/svg" xmlns:xlink="http://www.w3.org/1999/xlink" width="1024" zoomAndPan="magnify" viewBox="0 0 768 767.999994" height="1024" preserveAspectRatio="xMidYMid meet" version="1.0"><defs><clipPath id="297b8db692"><path d="M 317.324219 53.226562 L 723.824219 53.226562 L 723.824219 459.726562 L 317.324219 459.726562 Z M 317.324219 53.226562 " clip-rule="nonzero"/></clipPath><clipPath id="8f1429bf5a"><path d="M 300.824219 152.914062 L 618.074219 152.914062 L 618.074219 470.164062 L 300.824219 470.164062 Z M 300.824219 152.914062 " clip-rule="nonzero"/></clipPath><clipPath id="bbbf38a749"><path d="M 317.324219 261.042969 L 504.824219 261.042969 L 504.824219 448.542969 L 317.324219 448.542969 Z M 317.324219 261.042969 " clip-rule="nonzero"/></clipPath></defs><path fill="#057dcd" d="M 523.503906 504.640625 C 511.914062 497.847656 497.671875 497.988281 486.136719 504.839844 L 427.738281 539.632812 C 414.664062 547.425781 398.339844 546.511719 386.351562 537.152344 C 365.628906 520.96875 332.261719 493.734375 303.230469 464.707031 C 274.203125 435.679688 246.972656 402.3125 230.789062 381.589844 C 221.425781 369.601562 220.511719 353.273438 228.304688 340.199219 L 263.097656 281.800781 C 269.976562 270.269531 270.035156 255.910156 263.242188 244.324219 L 177.554688 97.949219 C 169.246094 83.792969 152.75 76.828125 136.792969 80.738281 C 121.292969 84.507812 101.171875 93.699219 80.078125 114.820312 C 14.027344 180.871094 -21.050781 292.277344 227.332031 540.660156 C 475.71875 789.046875 587.097656 753.996094 653.175781 687.917969 C 674.328125 666.765625 683.488281 646.617188 687.285156 631.089844 C 691.140625 615.160156 684.289062 598.777344 670.160156 590.5 C 634.878906 569.863281 558.78125 525.304688 523.503906 504.640625 Z M 523.503906 504.640625 " fill-opacity="1" fill-rule="nonzero"/><g clip-path="url(#297b8db692)"><path fill="#11efe3" d="M 703.386719 459.515625 C 692.222656 459.515625 683.160156 450.457031 683.160156 439.292969 C 683.160156 248.726562 528.113281 93.679688 337.550781 93.679688 C 326.386719 93.679688 317.324219 84.617188 317.324219 73.453125 C 317.324219 62.289062 326.386719 53.226562 337.550781 53.226562 C 389.648438 53.226562 440.214844 63.421875 487.824219 83.566406 C 533.816406 103.023438 575.078125 130.851562 610.511719 166.289062 C 645.945312 201.722656 673.777344 243.023438 693.234375 288.976562 C 713.378906 336.585938 723.574219 387.148438 723.574219 439.25 C 723.613281 450.457031 714.550781 459.515625 703.386719 459.515625 Z M 703.386719 459.515625 " fill-opacity="1" fill-rule="nonzero"/></g><g clip-path="url(#8f1429bf5a)"><path fill="#11efe3" d="M 602.246094 470.128906 C 593.53125 470.128906 586.457031 463.054688 586.457031 454.339844 C 586.457031 305.554688 465.398438 184.5 316.613281 184.5 C 307.898438 184.5 300.824219 177.425781 300.824219 168.707031 C 300.824219 159.992188 307.898438 152.914062 316.613281 152.914062 C 357.292969 152.914062 396.769531 160.875 433.945312 176.601562 C 469.851562 191.792969 502.066406 213.523438 529.734375 241.1875 C 557.398438 268.855469 579.128906 301.101562 594.320312 336.980469 C 610.046875 374.152344 618.007812 413.628906 618.007812 454.308594 C 618.039062 463.054688 610.964844 470.128906 602.246094 470.128906 Z M 602.246094 470.128906 " fill-opacity="1" fill-rule="nonzero"/></g><g clip-path="url(#bbbf38a749)"><path fill="#11efe3" d="M 495.546875 448.601562 C 490.390625 448.601562 486.207031 444.417969 486.207031 439.265625 C 486.207031 351.292969 414.632812 279.71875 326.660156 279.71875 C 321.507812 279.71875 317.324219 275.535156 317.324219 270.378906 C 317.324219 265.226562 321.507812 261.042969 326.660156 261.042969 C 350.710938 261.042969 374.054688 265.75 396.035156 275.046875 C 417.265625 284.03125 436.3125 296.878906 452.671875 313.238281 C 469.027344 329.59375 481.875 348.660156 490.859375 369.875 C 500.15625 391.851562 504.863281 415.195312 504.863281 439.246094 C 504.882812 444.417969 500.699219 448.601562 495.546875 448.601562 Z M 495.546875 448.601562 " fill-opacity="1" fill-rule="nonzero"/></g></svg>