<svg xmlns="http://www.w3.org/2000/svg" xmlns:xlink="http://www.w3.org/1999/xlink" width="1024" zoomAndPan="magnify" viewBox="0 0 768 767.999994" height="1024" preserveAspectRatio="xMidYMid meet" version="1.0"><defs><filter x="0%" y="0%" width="100%" height="100%" id="22dc2ab564"><feColorMatrix values="0 0 0 0 1 0 0 0 0 1 0 0 0 0 1 0 0 0 1 0" color-interpolation-filters="sRGB"/></filter><clipPath id="241889194f"><path d="M 226 35.898438 L 369 35.898438 L 369 135 L 226 135 Z M 226 35.898438 " clip-rule="nonzero"/></clipPath><clipPath id="a0256a9240"><path d="M 35.023438 164 L 177 164 L 177 603 L 35.023438 603 Z M 35.023438 164 " clip-rule="nonzero"/></clipPath><clipPath id="78c693ac8f"><path d="M 226 632 L 369 632 L 369 731.898438 L 226 731.898438 Z M 226 632 " clip-rule="nonzero"/></clipPath><clipPath id="350e41c882"><path d="M 398 35.898438 L 542 35.898438 L 542 135 L 398 135 Z M 398 35.898438 " clip-rule="nonzero"/></clipPath><clipPath id="42025d0619"><path d="M 398 632 L 542 632 L 542 731.898438 L 398 731.898438 Z M 398 632 " clip-rule="nonzero"/></clipPath><mask id="2f01726f55"><g filter="url(#22dc2ab564)"><rect x="-76.8" width="921.6" fill="#000000" y="-76.799999" height="921.599993" fill-opacity="0.8"/></g></mask><clipPath id="5a70c74034"><path d="M 0 0.28125 L 377.28125 0.28125 L 377.28125 325 L 0 325 Z M 0 0.28125 " clip-rule="nonzero"/></clipPath><clipPath id="1b930e145f"><rect x="0" width="378" y="0" height="325"/></clipPath></defs><path fill="#0566ff" d="M 208.882812 602.871094 L 368.925781 602.890625 L 368.925781 398.332031 L 158.964844 398.304688 C 161.039062 475.605469 179.402344 546.46875 208.882812 602.871094 Z M 208.882812 602.871094 " fill-opacity="1" fill-rule="nonzero"/><g clip-path="url(#241889194f)"><path fill="#0566ff" d="M 226.15625 134.929688 L 368.925781 134.953125 L 368.925781 35.675781 C 313.488281 41.265625 263.480469 78.082031 226.15625 134.929688 Z M 226.15625 134.929688 " fill-opacity="1" fill-rule="nonzero"/></g><path fill="#0566ff" d="M 158.964844 368.890625 L 368.925781 368.925781 L 368.925781 164.359375 L 208.910156 164.335938 C 179.429688 220.722656 161.050781 291.585938 158.964844 368.890625 Z M 158.964844 368.890625 " fill-opacity="1" fill-rule="nonzero"/><g clip-path="url(#a0256a9240)"><path fill="#0566ff" d="M 129.566406 398.296875 L 53.746094 398.289062 C 45.632812 398.289062 39.042969 391.703125 39.042969 383.585938 C 39.042969 375.46875 45.632812 368.882812 53.746094 368.882812 L 129.558594 368.890625 C 131.535156 292.828125 148.6875 222.496094 176.628906 164.335938 L 112.6875 164.332031 C 64.0625 224.289062 34.847656 300.605469 34.847656 383.644531 C 34.847656 466.636719 64.03125 542.917969 112.621094 602.863281 L 176.59375 602.871094 C 148.671875 544.695312 131.527344 474.363281 129.566406 398.296875 Z M 129.566406 398.296875 " fill-opacity="1" fill-rule="nonzero"/></g><path fill="#0566ff" d="M 250.960938 61.136719 C 209.082031 78.433594 171.285156 103.648438 139.4375 134.921875 L 192.289062 134.929688 C 209.207031 106.179688 228.964844 81.21875 250.960938 61.136719 Z M 250.960938 61.136719 " fill-opacity="1" fill-rule="nonzero"/><path fill="#0566ff" d="M 192.253906 632.269531 L 139.355469 632.261719 C 171.21875 663.570312 209.042969 688.808594 250.960938 706.125 C 228.945312 686.023438 209.183594 661.042969 192.253906 632.269531 Z M 192.253906 632.269531 " fill-opacity="1" fill-rule="nonzero"/><path fill="#0566ff" d="M 575.007812 134.988281 L 627.902344 134.996094 C 596.046875 103.6875 558.222656 78.449219 516.3125 61.144531 C 538.316406 81.234375 558.085938 106.214844 575.007812 134.988281 Z M 575.007812 134.988281 " fill-opacity="1" fill-rule="nonzero"/><g clip-path="url(#78c693ac8f)"><path fill="#0566ff" d="M 368.925781 731.582031 L 368.925781 632.296875 L 226.121094 632.277344 C 263.445312 689.15625 313.472656 725.996094 368.925781 731.582031 Z M 368.925781 731.582031 " fill-opacity="1" fill-rule="nonzero"/></g><path fill="#0566ff" d="M 516.3125 706.125 C 558.195312 688.824219 595.980469 663.617188 627.828125 632.34375 L 574.976562 632.335938 C 558.0625 661.078125 538.308594 686.039062 516.3125 706.125 Z M 516.3125 706.125 " fill-opacity="1" fill-rule="nonzero"/><path fill="#0566ff" d="M 654.625 164.402344 L 590.652344 164.394531 C 618.589844 222.5625 635.722656 292.894531 637.6875 368.96875 L 713.503906 368.976562 C 721.621094 368.976562 728.207031 375.566406 728.207031 383.679688 C 728.207031 391.796875 721.621094 398.382812 713.503906 398.382812 L 637.695312 398.375 C 635.722656 474.4375 618.574219 544.769531 590.628906 602.929688 L 654.574219 602.9375 C 703.199219 542.976562 732.40625 466.664062 732.40625 383.636719 C 732.40625 300.636719 703.21875 224.355469 654.625 164.402344 Z M 654.625 164.402344 " fill-opacity="1" fill-rule="nonzero"/><path fill="#0566ff" d="M 558.378906 164.390625 L 398.332031 164.367188 L 398.332031 368.925781 L 608.296875 368.957031 C 606.222656 291.652344 587.851562 220.789062 558.378906 164.390625 Z M 558.378906 164.390625 " fill-opacity="1" fill-rule="nonzero"/><g clip-path="url(#350e41c882)"><path fill="#0566ff" d="M 398.332031 35.675781 L 398.332031 134.960938 L 541.136719 134.984375 C 503.8125 78.09375 453.777344 41.257812 398.332031 35.675781 Z M 398.332031 35.675781 " fill-opacity="1" fill-rule="nonzero"/></g><path fill="#0566ff" d="M 608.296875 398.371094 L 398.332031 398.332031 L 398.332031 602.890625 L 558.355469 602.914062 C 587.835938 546.535156 606.207031 475.671875 608.296875 398.371094 Z M 608.296875 398.371094 " fill-opacity="1" fill-rule="nonzero"/><g clip-path="url(#42025d0619)"><path fill="#0566ff" d="M 398.332031 632.304688 L 398.332031 731.582031 C 453.773438 726 503.785156 689.175781 541.109375 632.328125 Z M 398.332031 632.304688 " fill-opacity="1" fill-rule="nonzero"/></g><g mask="url(#2f01726f55)"><g transform="matrix(1, 0, 0, 1, 384, 443)"><g clip-path="url(#1b930e145f)"><g clip-path="url(#5a70c74034)"><path fill="#00299c" d="M 262.984375 171.070312 C 250.171875 171.070312 239.785156 160.683594 239.785156 147.875 C 239.785156 135.066406 250.171875 124.679688 262.984375 124.679688 C 275.792969 124.679688 286.179688 135.066406 286.179688 147.875 C 286.179688 160.683594 275.792969 171.070312 262.984375 171.070312 Z M 185.664062 171.070312 C 172.851562 171.070312 162.464844 160.683594 162.464844 147.875 C 162.464844 135.066406 172.851562 124.679688 185.664062 124.679688 C 198.472656 124.679688 208.859375 135.066406 208.859375 147.875 C 208.859375 160.683594 198.472656 171.070312 185.664062 171.070312 Z M 108.34375 171.070312 C 95.53125 171.070312 85.144531 160.683594 85.144531 147.875 C 85.144531 135.066406 95.53125 124.679688 108.34375 124.679688 C 121.152344 124.679688 131.539062 135.066406 131.539062 147.875 C 131.539062 160.683594 121.152344 171.070312 108.34375 171.070312 Z M 191.738281 0.910156 C 87.746094 -1.140625 2.144531 62.941406 0.550781 144.039062 C -0.0078125 172.234375 9.671875 198.769531 26.894531 221.480469 L 26.890625 221.480469 C 56.507812 259.535156 24.179688 324.953125 24.179688 324.953125 L 119.628906 283.847656 C 140.191406 290.34375 162.535156 294.128906 185.953125 294.589844 C 289.945312 296.640625 375.542969 232.558594 377.140625 151.460938 C 378.742188 70.363281 295.734375 2.960938 191.738281 0.910156 " fill-opacity="1" fill-rule="evenodd"/></g></g></g></g></svg>