<svg xmlns="http://www.w3.org/2000/svg" xmlns:xlink="http://www.w3.org/1999/xlink" width="1024" zoomAndPan="magnify" viewBox="0 0 768 767.999994" height="1024" preserveAspectRatio="xMidYMid meet" version="1.0"><defs><filter x="0%" y="0%" width="100%" height="100%" id="6c50da447d"><feColorMatrix values="0 0 0 0 1 0 0 0 0 1 0 0 0 0 1 0 0 0 1 0" color-interpolation-filters="sRGB"/></filter><clipPath id="57a7b3b248"><path d="M 48.621094 204.796875 L 230.007812 204.796875 L 230.007812 768 L 48.621094 768 Z M 48.621094 204.796875 " clip-rule="nonzero"/></clipPath><clipPath id="7483be71bc"><path d="M 86.121094 204.796875 L 192.507812 204.796875 C 213.21875 204.796875 230.007812 221.585938 230.007812 242.296875 L 230.007812 753.476562 C 230.007812 774.183594 213.21875 790.972656 192.507812 790.972656 L 86.121094 790.972656 C 65.410156 790.972656 48.621094 774.183594 48.621094 753.476562 L 48.621094 242.296875 C 48.621094 221.585938 65.410156 204.796875 86.121094 204.796875 Z M 86.121094 204.796875 " clip-rule="nonzero"/></clipPath><clipPath id="c985d734ab"><path d="M 299.039062 352.015625 L 480.429688 352.015625 L 480.429688 768 L 299.039062 768 Z M 299.039062 352.015625 " clip-rule="nonzero"/></clipPath><clipPath id="3d1872e125"><path d="M 336.539062 352.015625 L 442.929688 352.015625 C 463.640625 352.015625 480.429688 368.804688 480.429688 389.515625 L 480.429688 764.195312 C 480.429688 784.90625 463.640625 801.695312 442.929688 801.695312 L 336.539062 801.695312 C 315.832031 801.695312 299.039062 784.90625 299.039062 764.195312 L 299.039062 389.515625 C 299.039062 368.804688 315.832031 352.015625 336.539062 352.015625 Z M 336.539062 352.015625 " clip-rule="nonzero"/></clipPath><clipPath id="7d9d774378"><path d="M 549.460938 76.800781 L 728.46875 76.800781 L 728.46875 768 L 549.460938 768 Z M 549.460938 76.800781 " clip-rule="nonzero"/></clipPath><clipPath id="a0b038e22f"><path d="M 586.960938 76.800781 L 690.96875 76.800781 C 711.679688 76.800781 728.46875 93.589844 728.46875 114.300781 L 728.46875 753.476562 C 728.46875 774.183594 711.679688 790.976562 690.96875 790.976562 L 586.960938 790.976562 C 566.25 790.976562 549.460938 774.183594 549.460938 753.476562 L 549.460938 114.300781 C 549.460938 93.589844 566.25 76.800781 586.960938 76.800781 Z M 586.960938 76.800781 " clip-rule="nonzero"/></clipPath><mask id="b1255caca3"><g filter="url(#6c50da447d)"><rect x="-76.8" width="921.6" fill="#000000" y="-76.799999" height="921.599993" fill-opacity="0.7"/></g></mask><clipPath id="31d193139c"><path d="M 215 7 L 768 7 L 768 552 L 215 552 Z M 215 7 " clip-rule="nonzero"/></clipPath><clipPath id="11f0deb348"><path d="M 660.710938 11.984375 L 1086.125 544.503906 C 1087.855469 546.671875 1088.191406 549.636719 1086.988281 552.136719 C 1085.785156 554.636719 1083.257812 556.222656 1080.484375 556.222656 L 222.214844 556.222656 C 219.441406 556.222656 216.914062 554.636719 215.710938 552.136719 C 214.511719 549.636719 214.847656 546.671875 216.578125 544.503906 L 641.988281 11.984375 C 644.261719 9.136719 647.707031 7.480469 651.351562 7.480469 C 654.992188 7.480469 658.4375 9.136719 660.710938 11.984375 Z M 660.710938 11.984375 " clip-rule="nonzero"/></clipPath><clipPath id="4321d2b279"><path d="M 60 210 L 416 210 L 416 519 L 60 519 Z M 60 210 " clip-rule="nonzero"/></clipPath><clipPath id="aeb29b5e3f"><path d="M 142.410156 206.105469 L 420.539062 331.964844 L 333.695312 523.878906 L 55.566406 398.023438 Z M 142.410156 206.105469 " clip-rule="nonzero"/></clipPath><clipPath id="a57e65bee5"><path d="M 156.078125 212.289062 L 406.730469 325.714844 C 414.277344 329.128906 417.628906 338.019531 414.210938 345.566406 L 339.734375 510.148438 C 336.320312 517.695312 327.433594 521.046875 319.886719 517.632812 L 69.230469 404.207031 C 61.683594 400.789062 58.335938 391.902344 61.75 384.355469 L 136.226562 219.773438 C 139.644531 212.226562 148.53125 208.875 156.078125 212.289062 Z M 156.078125 212.289062 " clip-rule="nonzero"/></clipPath><clipPath id="2be8b37ec4"><path d="M 0 212 L 502 212 L 502 552 L 0 552 Z M 0 212 " clip-rule="nonzero"/></clipPath><clipPath id="63ca5dbdda"><path d="M 154.417969 216.746094 L 499.761719 564.332031 C 501.539062 566.121094 502.066406 568.804688 501.097656 571.132812 C 500.128906 573.457031 497.855469 574.976562 495.335938 574.976562 L -207.644531 574.976562 C -210.167969 574.976562 -212.441406 573.457031 -213.40625 571.132812 C -214.375 568.804688 -213.851562 566.121094 -212.074219 564.332031 L 133.273438 216.746094 C 136.070312 213.929688 139.875 212.347656 143.84375 212.347656 C 147.8125 212.347656 151.621094 213.929688 154.417969 216.746094 Z M 154.417969 216.746094 " clip-rule="nonzero"/></clipPath><clipPath id="b8b8b9adfb"><rect x="0" width="768" y="0" height="552"/></clipPath></defs><g clip-path="url(#57a7b3b248)"><g clip-path="url(#7483be71bc)"><path fill="#057dcd" d="M 48.621094 204.796875 L 230.007812 204.796875 L 230.007812 790.765625 L 48.621094 790.765625 Z M 48.621094 204.796875 " fill-opacity="1" fill-rule="nonzero"/></g></g><g clip-path="url(#c985d734ab)"><g clip-path="url(#3d1872e125)"><path fill="#057dcd" d="M 299.039062 352.015625 L 480.429688 352.015625 L 480.429688 801.941406 L 299.039062 801.941406 Z M 299.039062 352.015625 " fill-opacity="1" fill-rule="nonzero"/></g></g><g clip-path="url(#7d9d774378)"><g clip-path="url(#a0b038e22f)"><path fill="#057dcd" d="M 549.460938 76.800781 L 728.46875 76.800781 L 728.46875 790.726562 L 549.460938 790.726562 Z M 549.460938 76.800781 " fill-opacity="1" fill-rule="nonzero"/></g></g><g mask="url(#b1255caca3)"><g transform="matrix(1, 0, 0, 1, 0, 216)"><g clip-path="url(#b8b8b9adfb)"><g clip-path="url(#31d193139c)"><g clip-path="url(#11f0deb348)"><path fill="#11efe3" d="M 207.214844 0.265625 L 1095.445312 0.265625 L 1095.445312 556.222656 L 207.214844 556.222656 Z M 207.214844 0.265625 " fill-opacity="1" fill-rule="nonzero"/></g></g><g clip-path="url(#4321d2b279)"><g clip-path="url(#aeb29b5e3f)"><g clip-path="url(#a57e65bee5)"><path fill="#11efe3" d="M 142.410156 206.105469 L 420.539062 331.964844 L 333.695312 523.878906 L 55.566406 398.023438 Z M 142.410156 206.105469 " fill-opacity="1" fill-rule="nonzero"/></g></g></g><g clip-path="url(#2be8b37ec4)"><g clip-path="url(#63ca5dbdda)"><path fill="#11efe3" d="M -222.644531 206.105469 L 510.769531 206.105469 L 510.769531 574.976562 L -222.644531 574.976562 Z M -222.644531 206.105469 " fill-opacity="1" fill-rule="nonzero"/></g></g></g></g></g></svg>