<svg xmlns="http://www.w3.org/2000/svg" xmlns:xlink="http://www.w3.org/1999/xlink" width="1024" zoomAndPan="magnify" viewBox="0 0 768 767.999994" height="1024" preserveAspectRatio="xMidYMid meet" version="1.0"><defs><filter x="0%" y="0%" width="100%" height="100%" id="5555c929da"><feColorMatrix values="0 0 0 0 1 0 0 0 0 1 0 0 0 0 1 0 0 0 1 0" color-interpolation-filters="sRGB"/></filter><clipPath id="db6b757160"><path d="M 63.054688 299.074219 L 768 299.074219 L 768 691.324219 L 63.054688 691.324219 Z M 63.054688 299.074219 " clip-rule="nonzero"/></clipPath><mask id="3efa417460"><g filter="url(#5555c929da)"><rect x="-76.8" width="921.6" fill="#000000" y="-76.799999" height="921.599993" fill-opacity="0.7"/></g></mask><clipPath id="c677011a01"><path d="M 0 0.269531 L 704.878906 0.269531 L 704.878906 414.269531 L 0 414.269531 Z M 0 0.269531 " clip-rule="nonzero"/></clipPath><clipPath id="c38e19d24d"><rect x="0" width="705" y="0" height="415"/></clipPath></defs><path fill="#11efe3" d="M 517.609375 584.84375 L 130.640625 584.476562 C 96.050781 584.441406 68.027344 556.390625 68.027344 521.796875 L 68.027344 366.742188 C 68.027344 332.128906 96.085938 304.0625 130.703125 304.0625 L 700.359375 304.0625 C 734.972656 304.0625 763.039062 332.128906 763.039062 366.742188 L 763.039062 522.257812 C 763.039062 556.894531 734.945312 584.964844 700.308594 584.9375 L 625.8125 584.847656 L 644.03125 679.476562 L 517.609375 584.847656 Z M 517.609375 584.84375 " fill-opacity="1" fill-rule="nonzero"/><g clip-path="url(#db6b757160)"><path fill="#11efe3" d="M 646.925781 691.160156 L 511.535156 589.816406 L 130.632812 589.449219 C 112.578125 589.429688 95.605469 582.382812 82.84375 569.609375 C 70.085938 556.835938 63.054688 539.855469 63.054688 521.796875 L 63.054688 366.742188 C 63.054688 329.441406 93.402344 299.09375 130.703125 299.09375 L 700.359375 299.09375 C 737.660156 299.09375 768.007812 329.441406 768.007812 366.742188 L 768.007812 522.257812 C 768.007812 540.335938 760.964844 557.332031 748.175781 570.113281 C 735.398438 582.882812 718.417969 589.910156 700.359375 589.910156 L 700.304688 589.910156 C 700.304688 589.910156 627.414062 589.824219 627.414062 589.824219 Z M 615.375 579.878906 L 700.3125 579.96875 L 700.359375 579.96875 C 715.765625 579.96875 730.25 573.972656 741.148438 563.082031 C 752.058594 552.175781 758.070312 537.679688 758.070312 522.257812 L 758.070312 366.742188 C 758.070312 334.921875 732.179688 309.035156 700.359375 309.035156 L 130.699219 309.035156 C 98.882812 309.035156 72.992188 334.921875 72.992188 366.742188 L 72.992188 521.800781 C 72.992188 553.585938 98.855469 579.476562 130.640625 579.507812 L 514.84375 579.882812 L 632.304688 667.800781 L 615.375 579.875 Z M 615.375 579.878906 " fill-opacity="1" fill-rule="nonzero"/></g><g mask="url(#3efa417460)"><g transform="matrix(1, 0, 0, 1, 0, 113)"><g clip-path="url(#c38e19d24d)"><path fill="#057dcd" d="M 264.683594 302.105469 L 131.140625 402.0625 L 150.386719 302.105469 L 71.699219 302.199219 C 35.113281 302.230469 5.4375 272.578125 5.4375 235.992188 L 5.4375 71.722656 C 5.4375 35.160156 35.082031 5.519531 71.644531 5.519531 L 633.308594 5.519531 C 669.875 5.519531 699.515625 35.160156 699.515625 71.722656 L 699.515625 235.507812 C 699.515625 272.046875 669.914062 301.679688 633.375 301.710938 L 264.683594 302.101562 Z M 264.683594 302.105469 " fill-opacity="1" fill-rule="nonzero"/><g clip-path="url(#c677011a01)"><path fill="#057dcd" d="M 128.085938 414.402344 L 148.695312 307.363281 L 71.703125 307.453125 L 71.644531 307.453125 C 52.570312 307.453125 34.636719 300.027344 21.136719 286.542969 C 7.628906 273.042969 0.1875 255.089844 0.1875 235.992188 L 0.1875 71.722656 C 0.1875 32.324219 32.242188 0.269531 71.644531 0.269531 L 633.308594 0.269531 C 672.710938 0.269531 704.765625 32.324219 704.765625 71.722656 L 704.765625 235.507812 C 704.765625 254.582031 697.339844 272.515625 683.863281 286.011719 C 670.382812 299.503906 652.457031 306.945312 633.382812 306.964844 L 271.097656 307.355469 Z M 161.414062 296.851562 L 143.53125 389.726562 L 267.601562 296.859375 L 633.375 296.46875 C 666.949219 296.433594 694.269531 269.085938 694.269531 235.511719 L 694.269531 71.722656 C 694.269531 38.113281 666.921875 10.769531 633.3125 10.769531 L 71.644531 10.769531 C 38.035156 10.769531 10.6875 38.113281 10.6875 71.722656 L 10.6875 235.992188 C 10.6875 252.28125 17.035156 267.597656 28.5625 279.117188 C 40.070312 290.617188 55.375 296.953125 71.644531 296.953125 L 71.695312 296.953125 L 161.414062 296.855469 Z M 161.414062 296.851562 " fill-opacity="1" fill-rule="nonzero"/></g></g></g></g></svg>