<svg xmlns="http://www.w3.org/2000/svg" xmlns:xlink="http://www.w3.org/1999/xlink" width="1024" zoomAndPan="magnify" viewBox="0 0 768 767.999994" height="1024" preserveAspectRatio="xMidYMid meet" version="1.0"><defs><filter x="0%" y="0%" width="100%" height="100%" id="70b903e220"><feColorMatrix values="0 0 0 0 1 0 0 0 0 1 0 0 0 0 1 0 0 0 1 0" color-interpolation-filters="sRGB"/></filter><clipPath id="9623e4859c"><path d="M 157 200 L 744 200 L 744 768 L 157 768 Z M 157 200 " clip-rule="nonzero"/></clipPath><clipPath id="130ed53d23"><path d="M -132.507812 449.925781 L 339.359375 -134.964844 L 900.898438 318.066406 L 429.03125 902.953125 Z M -132.507812 449.925781 " clip-rule="nonzero"/></clipPath><clipPath id="a5d7c996d3"><path d="M -132.507812 449.925781 L 339.359375 -134.964844 L 900.898438 318.066406 L 429.03125 902.953125 Z M -132.507812 449.925781 " clip-rule="nonzero"/></clipPath><clipPath id="8275c23773"><path d="M 24 0 L 610 0 L 610 566 L 24 566 Z M 24 0 " clip-rule="nonzero"/></clipPath><clipPath id="b6bd622eca"><path d="M -132.507812 449.925781 L 339.359375 -134.964844 L 900.898438 318.066406 L 429.03125 902.953125 Z M -132.507812 449.925781 " clip-rule="nonzero"/></clipPath><clipPath id="8e0c9e9907"><path d="M -132.507812 449.925781 L 339.359375 -134.964844 L 900.898438 318.066406 L 429.03125 902.953125 Z M -132.507812 449.925781 " clip-rule="nonzero"/></clipPath><mask id="9c2dea031b"><g filter="url(#70b903e220)"><rect x="-76.8" width="921.6" fill="#000000" y="-76.799999" height="921.599993" fill-opacity="0.7"/></g></mask><clipPath id="a74d52ca23"><path d="M 0.957031 0.957031 L 334.707031 0.957031 L 334.707031 334.707031 L 0.957031 334.707031 Z M 0.957031 0.957031 " clip-rule="nonzero"/></clipPath><clipPath id="16d760e456"><path d="M 130 108 L 334.707031 108 L 334.707031 332 L 130 332 Z M 130 108 " clip-rule="nonzero"/></clipPath><clipPath id="26a4682f21"><rect x="0" width="336" y="0" height="336"/></clipPath></defs><g clip-path="url(#9623e4859c)"><g clip-path="url(#130ed53d23)"><g clip-path="url(#a5d7c996d3)"><path fill="#11efe3" d="M 693.140625 200.53125 C 767.457031 325.96875 760.554688 489.871094 663.769531 609.839844 C 571.09375 724.714844 421.65625 767.410156 287.722656 730.339844 L 291.523438 792.015625 L 159.523438 664.894531 C 159.132812 664.582031 158.625 664.238281 158.222656 663.914062 L 158.382812 663.714844 L 157.824219 663.265625 L 274.566406 518.886719 L 280.207031 609.296875 C 381.011719 655.777344 504.332031 630.199219 577.136719 539.957031 C 634.363281 469.019531 646.085938 375.917969 616.011719 296.132812 Z M 693.140625 200.53125 " fill-opacity="1" fill-rule="nonzero"/></g></g></g><g clip-path="url(#8275c23773)"><g clip-path="url(#b6bd622eca)"><g clip-path="url(#8e0c9e9907)"><path fill="#11efe3" d="M 151.148438 470.070312 C 122.089844 390.835938 134.089844 298.691406 190.867188 228.320312 C 263.453125 138.34375 386.121094 112.75 486.703125 158.523438 L 492.304688 248.167969 L 539.039062 190.398438 C 539.277344 190.589844 539.582031 190.707031 539.820312 190.902344 L 609.707031 104.273438 C 609.550781 104.144531 609.3125 103.949219 609.152344 103.824219 L 475.339844 -24.941406 L 479.296875 37.699219 C 345.476562 1.128906 196.582031 43.796875 104.15625 158.363281 C 7.800781 277.800781 0.644531 440.726562 73.804688 565.945312 Z M 151.148438 470.070312 " fill-opacity="1" fill-rule="nonzero"/></g></g></g><g mask="url(#9c2dea031b)"><g transform="matrix(1, 0, 0, 1, 216, 216)"><g clip-path="url(#26a4682f21)"><g clip-path="url(#a74d52ca23)"><path fill="#057dcd" d="M 335.035156 167.996094 C 335.035156 260.25 260.25 335.035156 167.996094 335.035156 C 75.742188 335.035156 0.957031 260.25 0.957031 167.996094 C 0.957031 75.742188 75.742188 0.957031 167.996094 0.957031 C 260.25 0.957031 335.035156 75.742188 335.035156 167.996094 " fill-opacity="1" fill-rule="nonzero"/></g><g clip-path="url(#16d760e456)"><path fill="#057dcd" d="M 199.996094 331.960938 L 130.765625 262.730469 L 284.863281 108.625 L 334.761719 158.523438 C 334.9375 161.65625 335.035156 164.816406 335.035156 167.996094 C 335.035156 168.03125 335.035156 168.070312 335.035156 168.105469 L 335.035156 168.121094 C 335.035156 168.15625 335.035156 168.1875 335.035156 168.222656 C 335.035156 168.230469 335.035156 168.238281 335.035156 168.242188 C 335.035156 168.28125 335.035156 168.3125 335.035156 168.347656 C 335.035156 168.351562 335.035156 168.359375 335.035156 168.363281 C 335.035156 168.398438 335.035156 168.4375 335.035156 168.472656 L 335.035156 168.476562 C 335.035156 168.511719 335.035156 168.546875 335.035156 168.582031 L 335.035156 168.597656 C 335.035156 168.628906 335.03125 168.664062 335.03125 168.699219 C 335.03125 168.707031 335.03125 168.714844 335.03125 168.71875 C 335.03125 168.753906 335.03125 168.789062 335.03125 168.820312 C 335.03125 168.828125 335.03125 168.835938 335.03125 168.839844 C 335.03125 168.875 335.03125 168.910156 335.03125 168.945312 C 335.03125 168.953125 335.03125 168.953125 335.03125 168.957031 C 335.03125 168.992188 335.03125 169.027344 335.03125 169.0625 C 335.03125 169.070312 335.03125 169.0625 335.03125 169.070312 C 335.03125 169.101562 335.03125 169.140625 335.03125 169.175781 C 335.03125 169.183594 335.03125 169.1875 335.03125 169.195312 C 335.03125 169.230469 335.027344 169.265625 335.027344 169.296875 C 335.027344 169.304688 335.027344 169.308594 335.027344 169.3125 C 335.027344 169.347656 335.027344 169.386719 335.027344 169.417969 C 335.027344 169.425781 335.027344 169.429688 335.027344 169.433594 C 335.027344 169.46875 335.027344 169.503906 335.027344 169.535156 C 335.027344 169.542969 335.027344 169.539062 335.027344 169.546875 C 335.027344 169.578125 335.027344 169.617188 335.023438 169.652344 C 335.023438 169.65625 335.023438 169.664062 335.023438 169.667969 C 335.023438 169.703125 335.023438 169.738281 335.023438 169.773438 C 335.023438 169.777344 335.023438 169.785156 335.023438 169.789062 C 335.023438 169.828125 335.023438 169.859375 335.023438 169.894531 L 335.023438 169.90625 C 335.023438 169.945312 335.023438 169.984375 335.023438 170.019531 C 335.023438 170.058594 335.023438 170.089844 335.023438 170.128906 C 335.023438 170.136719 335.023438 170.136719 335.023438 170.140625 C 335.023438 170.179688 335.023438 170.207031 335.019531 170.246094 L 335.019531 170.261719 C 335.019531 170.300781 335.019531 170.332031 335.019531 170.371094 L 335.019531 170.382812 C 335.019531 170.460938 335.015625 170.527344 335.015625 170.609375 L 335.015625 170.613281 C 335.015625 170.65625 335.015625 170.683594 335.011719 170.722656 L 335.011719 170.738281 C 335.011719 170.777344 335.011719 170.804688 335.011719 170.84375 C 335.011719 170.851562 335.011719 170.851562 335.011719 170.855469 C 335.007812 170.976562 335.007812 171.085938 335.003906 171.203125 L 335.003906 171.207031 C 335.003906 171.246094 335.003906 171.28125 335.003906 171.320312 C 335.003906 171.328125 335.003906 171.320312 335.003906 171.328125 C 335 171.445312 334.996094 171.558594 334.996094 171.679688 C 334.992188 171.71875 334.992188 171.757812 334.992188 171.796875 C 333.214844 251.40625 275.734375 317.265625 199.996094 331.960938 " fill-opacity="1" fill-rule="nonzero"/></g><path fill="#feffff" d="M 51.128906 184.238281 L 87.929688 147.4375 L 131.625 191.140625 L 249.503906 73.261719 L 284.863281 108.625 L 130.765625 262.730469 L 51.128906 184.238281 " fill-opacity="1" fill-rule="nonzero"/></g></g></g></svg>