<svg xmlns="http://www.w3.org/2000/svg" xmlns:xlink="http://www.w3.org/1999/xlink" width="1024" zoomAndPan="magnify" viewBox="0 0 768 767.999994" height="1024" preserveAspectRatio="xMidYMid meet" version="1.0"><defs><filter x="0%" y="0%" width="100%" height="100%" id="254ff16f1f"><feColorMatrix values="0 0 0 0 1 0 0 0 0 1 0 0 0 0 1 0 0 0 1 0" color-interpolation-filters="sRGB"/></filter><clipPath id="03f7b98cf6"><path d="M 16.394531 16.394531 L 679.394531 16.394531 L 679.394531 679.394531 L 16.394531 679.394531 Z M 16.394531 16.394531 " clip-rule="nonzero"/></clipPath><mask id="6639a74bdd"><g filter="url(#254ff16f1f)"><rect x="-76.8" width="921.6" fill="#000000" y="-76.799999" height="921.599993" fill-opacity="0.69"/></g></mask><clipPath id="d38cabf592"><path d="M 1 1 L 440.320312 1 L 440.320312 379 L 1 379 Z M 1 1 " clip-rule="nonzero"/></clipPath><clipPath id="e411a4a9d4"><rect x="0" width="441" y="0" height="380"/></clipPath></defs><g clip-path="url(#03f7b98cf6)"><path fill="#11efe3" d="M 348.035156 16.394531 C 274.347656 16.394531 204.34375 40.285156 146.828125 84.375 L 146.828125 74.917969 C 146.828125 64.144531 138.09375 55.410156 127.320312 55.410156 C 116.542969 55.410156 107.808594 64.144531 107.808594 74.917969 C 107.808594 75.054688 107.8125 127.496094 107.8125 127.363281 C 107.828125 144.628906 128.824219 153.433594 141.117188 141.136719 C 196.386719 85.855469 269.871094 55.410156 348.035156 55.410156 C 509.386719 55.410156 640.660156 186.683594 640.660156 348.035156 C 640.660156 509.386719 509.386719 640.660156 348.035156 640.660156 C 186.683594 640.660156 55.410156 509.386719 55.410156 348.035156 C 55.410156 303.132812 65.304688 260.0625 84.820312 220.023438 C 89.542969 210.339844 85.515625 198.660156 75.832031 193.941406 C 66.148438 189.214844 54.46875 193.242188 49.75 202.929688 C 27.617188 248.339844 16.394531 297.160156 16.394531 348.035156 C 16.394531 531.324219 164.722656 679.675781 348.035156 679.675781 C 531.324219 679.675781 679.675781 531.347656 679.675781 348.035156 C 679.675781 164.746094 531.347656 16.394531 348.035156 16.394531 Z M 348.035156 16.394531 " fill-opacity="1" fill-rule="nonzero"/></g><path fill="#11efe3" d="M 348.035156 582.132812 C 477.117188 582.132812 582.132812 477.117188 582.132812 348.035156 C 582.132812 218.953125 477.117188 113.9375 348.035156 113.9375 C 218.953125 113.9375 113.9375 218.953125 113.9375 348.035156 C 113.9375 477.117188 218.953125 582.132812 348.035156 582.132812 Z M 238.308594 410.835938 L 328.527344 338.660156 L 328.527344 230.984375 C 328.527344 220.210938 337.261719 211.476562 348.035156 211.476562 C 358.808594 211.476562 367.542969 220.210938 367.542969 230.984375 L 367.542969 348.035156 C 367.542969 353.960938 364.851562 359.566406 360.222656 363.269531 L 262.679688 441.300781 C 254.292969 448.015625 242.011719 446.695312 235.261719 438.253906 C 228.53125 429.839844 229.894531 417.566406 238.308594 410.835938 Z M 238.308594 410.835938 " fill-opacity="1" fill-rule="nonzero"/><g mask="url(#6639a74bdd)"><g transform="matrix(1, 0, 0, 1, 326, 385)"><g clip-path="url(#e411a4a9d4)"><g clip-path="url(#d38cabf592)"><path fill="#057dcd" d="M 307.144531 199.683594 C 292.21875 199.683594 280.121094 187.585938 280.121094 172.660156 C 280.121094 157.734375 292.21875 145.632812 307.144531 145.632812 C 322.070312 145.632812 334.167969 157.734375 334.167969 172.660156 C 334.167969 187.585938 322.070312 199.683594 307.144531 199.683594 Z M 217.0625 199.683594 C 202.136719 199.683594 190.039062 187.585938 190.039062 172.660156 C 190.039062 157.734375 202.136719 145.632812 217.0625 145.632812 C 231.988281 145.632812 244.085938 157.734375 244.085938 172.660156 C 244.085938 187.585938 231.988281 199.683594 217.0625 199.683594 Z M 126.980469 199.683594 C 112.054688 199.683594 99.953125 187.585938 99.953125 172.660156 C 99.953125 157.734375 112.054688 145.632812 126.980469 145.632812 C 141.90625 145.632812 154.007812 157.734375 154.007812 172.660156 C 154.007812 187.585938 141.90625 199.683594 126.980469 199.683594 Z M 224.140625 1.4375 C 102.988281 -0.949219 3.257812 73.710938 1.398438 168.191406 C 0.75 201.039062 12.023438 231.953125 32.089844 258.414062 L 32.085938 258.414062 C 66.59375 302.75 28.929688 378.964844 28.929688 378.964844 L 140.128906 331.074219 C 164.085938 338.640625 190.117188 343.050781 217.402344 343.589844 C 338.554688 345.976562 438.285156 271.324219 440.144531 176.839844 C 442.007812 82.355469 345.300781 3.828125 224.140625 1.4375 " fill-opacity="1" fill-rule="evenodd"/></g></g></g></g></svg>