<svg xmlns="http://www.w3.org/2000/svg" xmlns:xlink="http://www.w3.org/1999/xlink" width="1024" zoomAndPan="magnify" viewBox="0 0 768 767.999994" height="1024" preserveAspectRatio="xMidYMid meet" version="1.0"><defs><filter x="0%" y="0%" width="100%" height="100%" id="1c0b6aebd3"><feColorMatrix values="0 0 0 0 1 0 0 0 0 1 0 0 0 0 1 0 0 0 1 0" color-interpolation-filters="sRGB"/></filter><clipPath id="9fde2a37bb"><path d="M 0 535 L 768 535 L 768 690.898438 L 0 690.898438 Z M 0 535 " clip-rule="nonzero"/></clipPath><mask id="dabe70e647"><g filter="url(#1c0b6aebd3)"><rect x="-76.8" width="921.6" fill="#000000" y="-76.799999" height="921.599993" fill-opacity="0.7"/></g></mask><clipPath id="83b39cddff"><path d="M 136 0.21875 L 238 0.21875 L 238 237.160156 L 136 237.160156 Z M 136 0.21875 " clip-rule="nonzero"/></clipPath><clipPath id="3784d4b5b1"><path d="M 0.898438 34 L 103 34 L 103 204 L 0.898438 204 Z M 0.898438 34 " clip-rule="nonzero"/></clipPath><clipPath id="9cc76bbd80"><path d="M 271 34 L 372.898438 34 L 372.898438 204 L 271 204 Z M 271 34 " clip-rule="nonzero"/></clipPath><clipPath id="3274b26126"><rect x="0" width="374" y="0" height="238"/></clipPath></defs><g clip-path="url(#9fde2a37bb)"><path fill="#11efe3" d="M 521.53125 650.917969 L 246.46875 650.917969 C 244.578125 650.917969 243.363281 648.921875 244.234375 647.246094 L 265.40625 606.488281 C 265.839844 605.652344 266.703125 605.132812 267.640625 605.132812 L 500.355469 605.132812 C 501.296875 605.132812 502.160156 605.652344 502.589844 606.488281 L 523.765625 647.246094 C 524.636719 648.921875 523.421875 650.917969 521.53125 650.917969 Z M 854.554688 655.542969 L 740.644531 541.644531 C 736.757812 537.75 731.484375 535.566406 725.980469 535.566406 L 42.015625 535.566406 C 36.511719 535.566406 31.242188 537.75 27.34375 541.644531 L -86.554688 655.542969 C -90.449219 659.4375 -92.632812 664.710938 -92.632812 670.214844 C -92.632812 681.667969 -83.34375 690.957031 -71.890625 690.957031 L 839.890625 690.957031 C 851.34375 690.957031 860.628906 681.667969 860.628906 670.214844 C 860.628906 664.710938 858.449219 659.4375 854.554688 655.542969 " fill-opacity="1" fill-rule="nonzero"/></g><path fill="#11efe3" d="M 700.480469 55.125 L 67.515625 55.125 C 49.203125 55.125 34.21875 70.105469 34.21875 88.421875 L 34.21875 464.214844 C 34.21875 482.527344 49.203125 497.511719 67.515625 497.511719 L 700.480469 497.511719 C 718.796875 497.511719 733.78125 482.527344 733.78125 464.214844 L 733.78125 88.421875 C 733.78125 70.105469 718.796875 55.125 700.480469 55.125 Z M 695.238281 93.664062 L 695.238281 458.972656 L 72.757812 458.972656 L 72.757812 93.664062 L 695.238281 93.664062 " fill-opacity="1" fill-rule="nonzero"/><g mask="url(#dabe70e647)"><g transform="matrix(1, 0, 0, 1, 197, 161)"><g clip-path="url(#3274b26126)"><g clip-path="url(#83b39cddff)"><path fill="#057dcd" d="M 226.179688 1.078125 C 224.464844 0.546875 222.613281 0.21875 220.828125 0.21875 C 213.5625 0.21875 207.085938 4.910156 204.773438 11.78125 L 137.113281 214.761719 C 136.515625 216.480469 136.253906 218.265625 136.253906 220.117188 C 136.253906 229.433594 143.917969 237.03125 153.167969 237.03125 C 160.4375 237.03125 166.910156 232.339844 169.226562 225.46875 L 236.886719 22.484375 C 237.480469 20.765625 237.746094 18.917969 237.746094 17.132812 C 237.746094 9.863281 233.054688 3.390625 226.179688 1.078125 " fill-opacity="1" fill-rule="nonzero"/></g><g clip-path="url(#3784d4b5b1)"><path fill="#057dcd" d="M 97.46875 39.003906 C 94.296875 35.832031 90 34.046875 85.507812 34.046875 C 81.015625 34.046875 76.71875 35.832031 73.546875 39.003906 L 5.886719 106.664062 C 2.714844 109.835938 0.933594 114.132812 0.933594 118.625 C 0.933594 123.117188 2.714844 127.414062 5.886719 130.582031 L 73.546875 198.246094 C 76.71875 201.285156 80.949219 203.003906 85.308594 203.003906 C 94.558594 203.003906 102.226562 195.335938 102.226562 186.085938 C 102.226562 181.726562 100.507812 177.496094 97.46875 174.324219 L 41.765625 118.625 L 97.46875 62.921875 C 100.640625 59.75 102.421875 55.457031 102.421875 50.964844 C 102.421875 46.46875 100.640625 42.175781 97.46875 39.003906 " fill-opacity="1" fill-rule="nonzero"/></g><g clip-path="url(#9cc76bbd80)"><path fill="#057dcd" d="M 368.109375 106.664062 L 300.449219 39.003906 C 297.277344 35.964844 293.050781 34.246094 288.6875 34.246094 C 279.4375 34.246094 271.773438 41.910156 271.773438 51.160156 C 271.773438 55.523438 273.492188 59.75 276.53125 62.921875 L 332.230469 118.625 L 276.53125 174.324219 C 273.226562 177.496094 271.375 181.925781 271.375 186.484375 C 271.375 195.800781 278.976562 203.398438 288.292969 203.398438 C 292.851562 203.398438 297.277344 201.546875 300.449219 198.246094 L 368.109375 130.582031 C 371.28125 127.414062 373.066406 123.117188 373.066406 118.625 C 373.066406 114.132812 371.28125 109.835938 368.109375 106.664062 " fill-opacity="1" fill-rule="nonzero"/></g></g></g></g></svg>