<svg xmlns="http://www.w3.org/2000/svg" xmlns:xlink="http://www.w3.org/1999/xlink" width="1024" zoomAndPan="magnify" viewBox="0 0 768 767.999994" height="1024" preserveAspectRatio="xMidYMid meet" version="1.0"><defs><filter x="0%" y="0%" width="100%" height="100%" id="6f87934713"><feColorMatrix values="0 0 0 0 1 0 0 0 0 1 0 0 0 0 1 0 0 0 1 0" color-interpolation-filters="sRGB"/></filter><clipPath id="149d896c76"><path d="M 41 105.828125 L 717 105.828125 L 717 394 L 41 394 Z M 41 105.828125 " clip-rule="nonzero"/></clipPath><clipPath id="0aa5aceefa"><path d="M 0 149 L 767.78125 149 L 767.78125 662.328125 L 0 662.328125 Z M 0 149 " clip-rule="nonzero"/></clipPath><mask id="56b64a1784"><g filter="url(#6f87934713)"><rect x="-76.8" width="921.6" fill="#000000" y="-76.799999" height="921.599993" fill-opacity="0.7"/></g></mask><clipPath id="b3fa0ad598"><path d="M 170 85 L 500 85 L 500 430 L 170 430 Z M 170 85 " clip-rule="nonzero"/></clipPath><clipPath id="b27d528dfb"><path d="M 253.683594 0.28125 L 505.058594 251.65625 L 253.683594 503.03125 L 2.308594 251.65625 Z M 253.683594 0.28125 " clip-rule="nonzero"/></clipPath><clipPath id="7ae5d68549"><path d="M 253.683594 0.28125 L 505.058594 251.65625 L 253.683594 503.03125 L 2.308594 251.65625 Z M 253.683594 0.28125 " clip-rule="nonzero"/></clipPath><clipPath id="709b52560e"><rect x="0" width="503" y="0" height="431"/></clipPath></defs><g clip-path="url(#149d896c76)"><path fill="#11efe3" d="M 716.515625 112.226562 C 711.402344 110.097656 706.132812 108.496094 700.699219 107.421875 C 695.269531 106.34375 689.785156 105.8125 684.246094 105.828125 L 72.277344 105.828125 C 61.671875 105.84375 51.472656 107.882812 41.679688 111.945312 L 378.261719 393.453125 Z M 716.515625 112.226562 " fill-opacity="1" fill-rule="nonzero"/></g><g clip-path="url(#0aa5aceefa)"><path fill="#11efe3" d="M 757.683594 150.335938 L 396.066406 451.035156 C 393.5625 453.105469 390.78125 454.695312 387.726562 455.792969 C 384.667969 456.890625 381.511719 457.4375 378.261719 457.433594 C 375.011719 457.4375 371.859375 456.890625 368.800781 455.792969 C 365.742188 454.695312 362.960938 453.105469 360.460938 451.035156 L -0.601562 149.222656 C -3.984375 155.359375 -6.574219 161.820312 -8.359375 168.597656 C -10.148438 175.375 -11.085938 182.269531 -11.171875 189.277344 L -11.171875 578.714844 C -11.171875 580.078125 -11.140625 581.445312 -11.070312 582.808594 C -11.003906 584.171875 -10.90625 585.535156 -10.769531 586.894531 C -10.636719 588.25 -10.46875 589.605469 -10.269531 590.957031 C -10.070312 592.308594 -9.835938 593.652344 -9.570312 594.992188 C -9.300781 596.332031 -9.003906 597.664062 -8.671875 598.988281 C -8.339844 600.316406 -7.976562 601.628906 -7.578125 602.9375 C -7.183594 604.246094 -6.753906 605.539062 -6.292969 606.828125 C -5.835938 608.113281 -5.34375 609.386719 -4.820312 610.648438 C -4.296875 611.910156 -3.742188 613.15625 -3.160156 614.390625 C -2.578125 615.628906 -1.960938 616.847656 -1.320312 618.050781 C -0.675781 619.253906 0 620.445312 0.699219 621.613281 C 1.402344 622.785156 2.132812 623.941406 2.890625 625.074219 C 3.648438 626.210938 4.4375 627.328125 5.25 628.425781 C 6.0625 629.519531 6.902344 630.597656 7.769531 631.652344 C 8.636719 632.710938 9.527344 633.742188 10.445312 634.753906 C 11.363281 635.765625 12.304688 636.753906 13.269531 637.722656 C 14.234375 638.6875 15.222656 639.628906 16.234375 640.546875 C 17.25 641.460938 18.28125 642.355469 19.335938 643.222656 C 20.394531 644.085938 21.46875 644.925781 22.566406 645.742188 C 23.664062 646.554688 24.78125 647.339844 25.914062 648.097656 C 27.050781 648.859375 28.203125 649.589844 29.375 650.289062 C 30.546875 650.992188 31.734375 651.664062 32.941406 652.308594 C 34.144531 652.953125 35.363281 653.566406 36.597656 654.152344 C 37.832031 654.734375 39.082031 655.289062 40.34375 655.8125 C 41.605469 656.332031 42.878906 656.824219 44.164062 657.285156 C 45.449219 657.746094 46.746094 658.171875 48.054688 658.570312 C 49.359375 658.964844 50.675781 659.332031 52 659.664062 C 53.324219 659.996094 54.65625 660.292969 55.996094 660.558594 C 57.335938 660.828125 58.683594 661.058594 60.035156 661.261719 C 61.382812 661.460938 62.738281 661.628906 64.097656 661.761719 C 65.457031 661.894531 66.820312 661.996094 68.183594 662.0625 C 69.546875 662.128906 70.914062 662.164062 72.277344 662.164062 L 684.246094 662.164062 C 685.613281 662.164062 686.976562 662.128906 688.34375 662.0625 C 689.707031 661.996094 691.066406 661.894531 692.425781 661.761719 C 693.785156 661.628906 695.140625 661.460938 696.492188 661.261719 C 697.84375 661.058594 699.1875 660.828125 700.527344 660.558594 C 701.867188 660.292969 703.199219 659.996094 704.523438 659.664062 C 705.847656 659.332031 707.164062 658.964844 708.472656 658.570312 C 709.777344 658.171875 711.074219 657.746094 712.359375 657.285156 C 713.648438 656.824219 714.921875 656.332031 716.183594 655.8125 C 717.445312 655.289062 718.691406 654.734375 719.925781 654.152344 C 721.160156 653.566406 722.382812 652.953125 723.585938 652.308594 C 724.789062 651.664062 725.976562 650.992188 727.148438 650.289062 C 728.320312 649.589844 729.472656 648.859375 730.609375 648.097656 C 731.746094 647.339844 732.863281 646.554688 733.957031 645.742188 C 735.054688 644.925781 736.132812 644.085938 737.1875 643.222656 C 738.242188 642.355469 739.277344 641.460938 740.289062 640.546875 C 741.300781 639.628906 742.289062 638.6875 743.253906 637.722656 C 744.222656 636.753906 745.164062 635.765625 746.082031 634.753906 C 746.996094 633.742188 747.890625 632.710938 748.753906 631.652344 C 749.621094 630.597656 750.460938 629.519531 751.277344 628.425781 C 752.089844 627.328125 752.875 626.210938 753.632812 625.074219 C 754.394531 623.941406 755.125 622.785156 755.824219 621.613281 C 756.527344 620.445312 757.199219 619.253906 757.84375 618.050781 C 758.488281 616.847656 759.101562 615.628906 759.6875 614.390625 C 760.269531 613.15625 760.824219 611.910156 761.34375 610.648438 C 761.867188 609.386719 762.359375 608.113281 762.820312 606.828125 C 763.28125 605.539062 763.707031 604.246094 764.105469 602.9375 C 764.5 601.628906 764.863281 600.316406 765.195312 598.988281 C 765.527344 597.664062 765.828125 596.332031 766.09375 594.992188 C 766.359375 593.652344 766.59375 592.308594 766.792969 590.957031 C 766.996094 589.605469 767.164062 588.25 767.296875 586.894531 C 767.429688 585.535156 767.53125 584.171875 767.597656 582.808594 C 767.664062 581.445312 767.699219 580.078125 767.699219 578.714844 L 767.699219 189.277344 C 767.640625 182.476562 766.765625 175.78125 765.070312 169.195312 C 763.378906 162.605469 760.914062 156.320312 757.683594 150.335938 Z M 757.683594 150.335938 " fill-opacity="1" fill-rule="nonzero"/></g><g mask="url(#56b64a1784)"><g transform="matrix(1, 0, 0, 1, 263, 337)"><g clip-path="url(#709b52560e)"><g clip-path="url(#b3fa0ad598)"><g clip-path="url(#b27d528dfb)"><g clip-path="url(#7ae5d68549)"><path fill="#057dcd" d="M 171.84375 95 C 167.566406 86.441406 170.957031 82.925781 179.757812 87.328125 L 492.585938 243.75 C 501.253906 248.085938 501.339844 255.449219 493.152344 260 L 191.5 427.566406 C 183.152344 432.226562 179.179688 428.699219 182.597656 419.773438 L 237.839844 276.175781 L 409.933594 251.589844 L 237.839844 227.003906 Z M 171.84375 95 " fill-opacity="1" fill-rule="nonzero"/></g></g></g></g></g></g></svg>