<svg xmlns="http://www.w3.org/2000/svg" xmlns:xlink="http://www.w3.org/1999/xlink" width="1024" zoomAndPan="magnify" viewBox="0 0 768 767.999994" height="1024" preserveAspectRatio="xMidYMid meet" version="1.0"><defs><filter x="0%" y="0%" width="100%" height="100%" id="189d352fba"><feColorMatrix values="0 0 0 0 1 0 0 0 0 1 0 0 0 0 1 0 0 0 1 0" color-interpolation-filters="sRGB"/></filter><clipPath id="36e6083f7b"><path d="M 2 30.238281 L 763 30.238281 L 763 736 L 2 736 Z M 2 30.238281 " clip-rule="nonzero"/></clipPath><mask id="9f61d34b07"><g filter="url(#189d352fba)"><rect x="-76.8" width="921.6" fill="#000000" y="-76.799999" height="921.599993" fill-opacity="0.8"/></g></mask><clipPath id="6322016403"><path d="M 0.28125 0.554688 L 373.519531 0.554688 L 373.519531 373.761719 L 0.28125 373.761719 Z M 0.28125 0.554688 " clip-rule="nonzero"/></clipPath><clipPath id="52ffa33724"><rect x="0" width="374" y="0" height="374"/></clipPath></defs><g clip-path="url(#36e6083f7b)"><path fill="#0566ff" d="M 729.855469 345.296875 C 728.582031 345.046875 727.261719 344.832031 725.894531 344.675781 C 708.363281 342.5625 690.421875 355.515625 687.660156 372.957031 C 685.917969 383.96875 689.027344 394.902344 706.574219 397.496094 C 712.027344 398.304688 716.949219 394.078125 717.277344 388.582031 C 717.507812 384.699219 715.414062 380.957031 711.855469 379.417969 C 709.089844 378.222656 706.527344 375.953125 707.148438 371.636719 C 707.988281 365.75 713.8125 361.851562 719.714844 362.535156 C 728.164062 363.515625 740.167969 367.566406 740.167969 382.773438 C 740.167969 382.773438 739.144531 427.640625 681.027344 410.308594 C 681.027344 410.308594 649.421875 274.695312 478.117188 223.722656 C 478.117188 223.722656 346.585938 191.089844 247.6875 230.867188 C 247.6875 230.867188 170.109375 182.613281 110.640625 202.769531 C 107.007812 203.996094 105.238281 208.128906 106.882812 211.59375 L 141.425781 283.886719 C 141.425781 283.886719 89.179688 326.96875 64.1875 386.191406 C 62.078125 391.207031 58.519531 395.476562 53.785156 398.179688 L 46.421875 402.386719 C 41.980469 404.933594 37.042969 406.503906 31.945312 407 L 22.628906 407.917969 C 9.351562 409.207031 0.046875 421.648438 2.578125 434.753906 L 20.269531 526.527344 C 22.660156 538.90625 33.484375 547.851562 46.09375 547.851562 L 66.71875 547.851562 C 72.265625 547.851562 77.59375 550.007812 81.566406 553.859375 L 163.121094 632.867188 C 167.066406 636.6875 169.738281 641.609375 170.824219 646.984375 L 187.394531 729.839844 C 188.0625 733.179688 191 735.601562 194.414062 735.601562 L 288.46875 735.601562 C 288.46875 735.601562 297.648438 737.636719 303.769531 686.664062 C 303.769531 686.664062 382.277344 705.023438 438.359375 688.699219 L 446.960938 732.699219 C 447.289062 734.390625 448.777344 735.617188 450.519531 735.617188 L 547.898438 735.617188 C 551.21875 735.617188 554.109375 733.320312 554.839844 730.074219 L 578.042969 628.53125 C 578.042969 628.53125 687.148438 576.535156 685.113281 433.777344 C 685.113281 433.777344 744.082031 443.964844 759.289062 400.992188 C 768.03125 376.25 755.558594 350.375 729.855469 345.296875 Z M 154.144531 393.984375 C 142.882812 393.984375 133.75 384.855469 133.75 373.59375 C 133.75 362.335938 142.882812 353.203125 154.144531 353.203125 C 165.402344 353.203125 174.535156 362.335938 174.535156 373.59375 C 174.535156 384.855469 165.402344 393.984375 154.144531 393.984375 Z M 477.527344 267.671875 C 475.847656 271.914062 471.113281 273.949219 466.824219 272.410156 C 389.265625 244.6875 317.871094 261.214844 295.226562 267.875 C 291.015625 269.117188 286.558594 266.929688 285.007812 262.8125 L 284.992188 262.78125 C 283.28125 258.261719 285.722656 253.246094 290.332031 251.847656 C 314.964844 244.425781 389.636719 226.9375 472.679688 256.785156 C 477.078125 258.355469 479.234375 263.339844 477.527344 267.671875 Z M 462.835938 102.347656 C 462.835938 142.105469 430.609375 174.332031 390.847656 174.332031 C 351.089844 174.332031 318.863281 142.105469 318.863281 102.347656 C 318.863281 62.589844 351.105469 30.363281 390.847656 30.363281 C 430.59375 30.363281 462.835938 62.589844 462.835938 102.347656 Z M 462.835938 102.347656 " fill-opacity="1" fill-rule="nonzero"/></g><g mask="url(#9f61d34b07)"><g transform="matrix(1, 0, 0, 1, 358, 364)"><g clip-path="url(#52ffa33724)"><g clip-path="url(#6322016403)"><path fill="#00299c" d="M 186.878906 373.75 C 289.953125 373.75 373.476562 290.226562 373.476562 187.152344 C 373.476562 84.082031 289.953125 0.554688 186.878906 0.554688 C 83.808594 0.554688 0.28125 84.082031 0.28125 187.152344 C 0.28125 290.226562 83.808594 373.75 186.878906 373.75 Z M 106.464844 264.015625 L 115.796875 243.578125 C 117.128906 240.910156 118.90625 239.132812 121.570312 238.246094 C 122.460938 237.800781 123.792969 237.800781 124.679688 237.800781 C 126.457031 237.800781 127.792969 238.246094 129.570312 239.132812 C 143.339844 246.6875 162.445312 251.128906 179.773438 251.128906 C 200.210938 251.128906 215.316406 242.6875 215.316406 231.136719 C 215.316406 223.585938 210.871094 214.699219 179.328125 204.480469 C 144.675781 193.816406 109.574219 177.824219 109.574219 142.28125 C 109.574219 115.179688 129.125 94.300781 162 85.859375 L 166.886719 84.523438 L 166.886719 62.3125 C 166.886719 56.980469 171.332031 52.535156 176.664062 52.535156 L 200.210938 52.535156 C 205.539062 52.535156 209.984375 56.980469 209.984375 62.3125 L 209.984375 82.304688 L 215.757812 83.191406 C 229.976562 84.96875 242.414062 88.523438 253.523438 93.855469 C 255.742188 95.1875 257.964844 96.964844 258.855469 99.628906 C 259.742188 102.296875 259.742188 104.960938 258.410156 107.183594 L 249.078125 126.730469 C 247.300781 130.285156 243.75 132.507812 240.195312 132.507812 C 238.863281 132.507812 237.527344 132.0625 236.195312 131.617188 C 229.976562 128.953125 215.316406 122.289062 192.210938 122.289062 C 171.332031 122.289062 162 130.285156 162 138.726562 C 162 147.613281 171.773438 153.832031 202.429688 164.050781 C 234.863281 174.714844 268.183594 190.707031 268.183594 229.359375 C 268.183594 250.242188 253.523438 278.230469 213.09375 288.449219 L 207.761719 289.339844 L 207.761719 312.441406 C 207.761719 317.773438 203.320312 322.214844 197.988281 322.214844 L 173.996094 322.214844 C 168.664062 322.214844 164.222656 317.773438 164.222656 312.441406 L 164.222656 291.113281 L 158.445312 290.671875 C 140.230469 288.449219 122.902344 283.5625 111.351562 276.898438 C 106.023438 274.234375 104.246094 268.902344 106.464844 264.015625 Z M 106.464844 264.015625 " fill-opacity="1" fill-rule="nonzero"/></g></g></g></g></svg>