<svg xmlns="http://www.w3.org/2000/svg" xmlns:xlink="http://www.w3.org/1999/xlink" width="1024" zoomAndPan="magnify" viewBox="0 0 768 767.999994" height="1024" preserveAspectRatio="xMidYMid meet" version="1.0"><defs><filter x="0%" y="0%" width="100%" height="100%" id="e4523543eb"><feColorMatrix values="0 0 0 0 1 0 0 0 0 1 0 0 0 0 1 0 0 0 1 0" color-interpolation-filters="sRGB"/></filter><mask id="076462a7a9"><g filter="url(#e4523543eb)"><rect x="-76.8" width="921.6" fill="#000000" y="-76.799999" height="921.599993" fill-opacity="0.7"/></g></mask><clipPath id="596fabb9af"><path d="M 0.277344 0.535156 L 339.921875 0.535156 L 339.921875 340 L 0.277344 340 Z M 0.277344 0.535156 " clip-rule="nonzero"/></clipPath><clipPath id="caabe5eb96"><path d="M 339 170 L 339.921875 170 L 339.921875 174 L 339 174 Z M 339 170 " clip-rule="nonzero"/></clipPath><clipPath id="ba11feeccc"><path d="M 132 109 L 339.921875 109 L 339.921875 337 L 132 337 Z M 132 109 " clip-rule="nonzero"/></clipPath><clipPath id="266974b8a5"><rect x="0" width="340" y="0" height="341"/></clipPath></defs><rect x="-76.8" width="921.6" fill="#ffffff" y="-76.799999" height="921.599993" fill-opacity="1"/><rect x="-76.8" width="921.6" fill="#ffffff" y="-76.799999" height="921.599993" fill-opacity="1"/><path fill="#11efe3" d="M 693.359375 92.015625 C 467.113281 51.144531 391.488281 1.96875 390.71875 1.488281 C 390.695312 1.464844 390.671875 1.464844 390.625 1.464844 C 389.375 0.648438 388.03125 0.121094 386.640625 -0.191406 C 386.328125 -0.238281 386.039062 -0.265625 385.726562 -0.3125 C 383.710938 -0.601562 381.71875 -0.265625 379.847656 0.457031 C 379.03125 0.769531 378.191406 0.960938 377.425781 1.464844 C 377.398438 1.464844 377.375 1.488281 377.351562 1.488281 C 376.609375 1.992188 300.960938 51.144531 74.734375 92.015625 C 69.023438 93.046875 64.871094 98.015625 64.871094 103.824219 L 64.871094 392.832031 C 64.96875 402.191406 70.871094 623.855469 379.007812 766.34375 C 380.640625 767.113281 382.367188 767.449219 384.046875 767.449219 C 385.726562 767.449219 387.457031 767.089844 389.089844 766.34375 C 697.296875 623.855469 703.128906 402.191406 703.222656 392.710938 L 703.222656 103.824219 C 703.222656 98.015625 699.070312 93.046875 693.359375 92.015625 Z M 693.359375 92.015625 " fill-opacity="1" fill-rule="nonzero"/><g mask="url(#076462a7a9)"><g transform="matrix(1, 0, 0, 1, 214, 195)"><g clip-path="url(#266974b8a5)"><g clip-path="url(#596fabb9af)"><path fill="#057dcd" d="M 339.710938 170.25 C 339.710938 263.984375 263.726562 339.96875 169.996094 339.96875 C 76.265625 339.96875 0.277344 263.984375 0.277344 170.25 C 0.277344 76.519531 76.265625 0.535156 169.996094 0.535156 C 263.726562 0.535156 339.710938 76.519531 339.710938 170.25 " fill-opacity="1" fill-rule="nonzero"/></g><g clip-path="url(#caabe5eb96)"><path fill="#d4d3d2" d="M 339.679688 173.636719 C 339.679688 173.628906 339.679688 173.636719 339.679688 173.628906 L 339.679688 173.636719 M 339.683594 173.511719 L 339.683594 173.507812 L 339.683594 173.511719 M 339.691406 173.15625 C 339.691406 173.152344 339.691406 173.152344 339.691406 173.144531 L 339.691406 173.15625 M 339.691406 173.035156 L 339.691406 173.023438 L 339.691406 173.035156 M 339.691406 172.910156 L 339.691406 172.90625 L 339.691406 172.910156 M 339.695312 172.675781 L 339.695312 172.664062 L 339.695312 172.675781 M 339.695312 172.554688 L 339.695312 172.539062 L 339.695312 172.554688 M 339.699219 172.429688 C 339.699219 172.425781 339.699219 172.425781 339.699219 172.417969 L 339.699219 172.429688 M 339.703125 172.191406 L 339.703125 172.179688 C 339.703125 172.1875 339.703125 172.191406 339.703125 172.191406 M 339.703125 172.074219 C 339.703125 172.066406 339.703125 172.0625 339.703125 172.058594 C 339.703125 172.066406 339.703125 172.0625 339.703125 172.074219 M 339.703125 171.953125 C 339.703125 171.945312 339.703125 171.9375 339.703125 171.933594 C 339.703125 171.9375 339.703125 171.945312 339.703125 171.953125 M 339.707031 171.824219 C 339.707031 171.820312 339.707031 171.820312 339.707031 171.816406 L 339.707031 171.824219 M 339.707031 171.710938 C 339.707031 171.707031 339.707031 171.703125 339.707031 171.695312 C 339.707031 171.703125 339.707031 171.707031 339.707031 171.710938 M 339.707031 171.589844 C 339.707031 171.582031 339.707031 171.578125 339.707031 171.574219 C 339.707031 171.578125 339.707031 171.582031 339.707031 171.589844 M 339.710938 171.46875 C 339.710938 171.460938 339.710938 171.457031 339.710938 171.449219 C 339.710938 171.460938 339.710938 171.457031 339.710938 171.46875 M 339.710938 171.339844 C 339.710938 171.335938 339.710938 171.339844 339.710938 171.335938 L 339.710938 171.339844 M 339.710938 171.230469 C 339.710938 171.222656 339.710938 171.222656 339.710938 171.214844 C 339.710938 171.21875 339.710938 171.222656 339.710938 171.230469 M 339.710938 171.109375 C 339.710938 171.101562 339.710938 171.097656 339.710938 171.089844 C 339.710938 171.097656 339.710938 171.101562 339.710938 171.109375 M 339.710938 170.988281 C 339.710938 170.980469 339.710938 170.972656 339.710938 170.96875 C 339.710938 170.976562 339.710938 170.976562 339.710938 170.988281 M 339.710938 170.859375 L 339.710938 170.847656 C 339.710938 170.855469 339.710938 170.855469 339.710938 170.859375 M 339.710938 170.738281 L 339.710938 170.734375 L 339.710938 170.738281 M 339.710938 170.625 C 339.710938 170.617188 339.710938 170.613281 339.710938 170.609375 C 339.710938 170.613281 339.710938 170.617188 339.710938 170.625 M 339.710938 170.503906 C 339.710938 170.496094 339.710938 170.488281 339.710938 170.484375 C 339.710938 170.492188 339.710938 170.492188 339.710938 170.503906 M 339.710938 170.375 L 339.710938 170.363281 C 339.710938 170.371094 339.710938 170.371094 339.710938 170.375 " fill-opacity="1" fill-rule="nonzero"/></g><g clip-path="url(#ba11feeccc)"><path fill="#057dcd" d="M 202.507812 336.84375 L 132.167969 266.503906 L 288.738281 109.929688 L 339.433594 160.625 C 339.613281 163.808594 339.710938 167.019531 339.710938 170.25 C 339.710938 170.289062 339.710938 170.328125 339.710938 170.363281 L 339.710938 170.375 C 339.710938 170.414062 339.710938 170.445312 339.710938 170.484375 C 339.710938 170.488281 339.710938 170.496094 339.710938 170.503906 C 339.710938 170.539062 339.710938 170.574219 339.710938 170.609375 C 339.710938 170.613281 339.710938 170.617188 339.710938 170.625 C 339.710938 170.660156 339.710938 170.699219 339.710938 170.734375 L 339.710938 170.738281 C 339.710938 170.773438 339.710938 170.8125 339.710938 170.847656 L 339.710938 170.859375 C 339.710938 170.894531 339.710938 170.929688 339.710938 170.96875 C 339.710938 170.972656 339.710938 170.980469 339.710938 170.988281 C 339.710938 171.019531 339.710938 171.054688 339.710938 171.089844 C 339.710938 171.097656 339.710938 171.101562 339.710938 171.109375 C 339.710938 171.140625 339.710938 171.179688 339.710938 171.214844 C 339.710938 171.222656 339.710938 171.222656 339.710938 171.230469 C 339.710938 171.261719 339.710938 171.296875 339.710938 171.335938 C 339.710938 171.339844 339.710938 171.335938 339.710938 171.339844 C 339.710938 171.375 339.710938 171.414062 339.710938 171.449219 C 339.710938 171.457031 339.710938 171.460938 339.710938 171.46875 C 339.710938 171.503906 339.707031 171.539062 339.707031 171.574219 C 339.707031 171.578125 339.707031 171.582031 339.707031 171.589844 C 339.707031 171.625 339.707031 171.664062 339.707031 171.695312 C 339.707031 171.703125 339.707031 171.707031 339.707031 171.710938 C 339.707031 171.746094 339.707031 171.78125 339.707031 171.816406 C 339.707031 171.820312 339.707031 171.820312 339.707031 171.824219 C 339.707031 171.859375 339.707031 171.898438 339.703125 171.933594 C 339.703125 171.9375 339.703125 171.945312 339.703125 171.953125 C 339.703125 171.984375 339.703125 172.019531 339.703125 172.058594 C 339.703125 172.0625 339.703125 172.066406 339.703125 172.074219 C 339.703125 172.109375 339.703125 172.144531 339.703125 172.179688 L 339.703125 172.191406 C 339.703125 172.230469 339.699219 172.269531 339.699219 172.304688 C 339.699219 172.347656 339.699219 172.378906 339.699219 172.417969 C 339.699219 172.425781 339.699219 172.425781 339.699219 172.429688 C 339.699219 172.46875 339.699219 172.5 339.695312 172.539062 L 339.695312 172.554688 C 339.695312 172.59375 339.695312 172.625 339.695312 172.664062 L 339.695312 172.675781 C 339.695312 172.753906 339.691406 172.824219 339.691406 172.90625 L 339.691406 172.910156 C 339.691406 172.953125 339.691406 172.980469 339.691406 173.023438 L 339.691406 173.035156 C 339.691406 173.074219 339.691406 173.105469 339.691406 173.144531 C 339.691406 173.152344 339.691406 173.152344 339.691406 173.15625 C 339.6875 173.277344 339.6875 173.390625 339.683594 173.507812 L 339.683594 173.511719 C 339.683594 173.550781 339.679688 173.589844 339.679688 173.628906 C 339.679688 173.636719 339.679688 173.628906 339.679688 173.636719 C 339.675781 173.753906 339.671875 173.871094 339.671875 173.992188 C 339.667969 174.03125 339.667969 174.074219 339.667969 174.113281 C 337.863281 255 279.464844 321.910156 202.507812 336.84375 " fill-opacity="1" fill-rule="nonzero"/></g><path fill="#feffff" d="M 51.253906 186.753906 L 88.644531 149.363281 L 133.042969 193.765625 L 252.808594 74 L 288.738281 109.929688 L 132.167969 266.503906 L 51.253906 186.753906 " fill-opacity="1" fill-rule="nonzero"/></g></g></g></svg>