<svg xmlns="http://www.w3.org/2000/svg" xmlns:xlink="http://www.w3.org/1999/xlink" width="1024" zoomAndPan="magnify" viewBox="0 0 768 767.999994" height="1024" preserveAspectRatio="xMidYMid meet" version="1.0"><defs><filter x="0%" y="0%" width="100%" height="100%" id="e78f56af32"><feColorMatrix values="0 0 0 0 1 0 0 0 0 1 0 0 0 0 1 0 0 0 1 0" color-interpolation-filters="sRGB"/></filter><clipPath id="265fe73a76"><path d="M 226 35.898438 L 369 35.898438 L 369 135 L 226 135 Z M 226 35.898438 " clip-rule="nonzero"/></clipPath><clipPath id="1db6b32cdb"><path d="M 35.023438 164 L 177 164 L 177 603 L 35.023438 603 Z M 35.023438 164 " clip-rule="nonzero"/></clipPath><clipPath id="84f77e5c55"><path d="M 226 632 L 369 632 L 369 731.898438 L 226 731.898438 Z M 226 632 " clip-rule="nonzero"/></clipPath><clipPath id="b5faebb5bc"><path d="M 398 35.898438 L 542 35.898438 L 542 135 L 398 135 Z M 398 35.898438 " clip-rule="nonzero"/></clipPath><clipPath id="c88acf5e53"><path d="M 398 632 L 542 632 L 542 731.898438 L 398 731.898438 Z M 398 632 " clip-rule="nonzero"/></clipPath><mask id="82199363de"><g filter="url(#e78f56af32)"><rect x="-76.8" width="921.6" fill="#000000" y="-76.799999" height="921.599993" fill-opacity="0.71"/></g></mask><clipPath id="2e25db17de"><path d="M 72 0.519531 L 289 0.519531 L 289 303 L 72 303 Z M 72 0.519531 " clip-rule="nonzero"/></clipPath><clipPath id="1e0fcff546"><path d="M 0.28125 157 L 61 157 L 61 297 L 0.28125 297 Z M 0.28125 157 " clip-rule="nonzero"/></clipPath><clipPath id="d93ffb0b7e"><rect x="0" width="291" y="0" height="307"/></clipPath><mask id="7b42f58cfe"><g filter="url(#e78f56af32)"><rect x="-76.8" width="921.6" fill="#000000" y="-76.799999" height="921.599993" fill-opacity="0.7"/></g></mask><clipPath id="4e27265a2f"><path d="M 1.023438 0.898438 L 259.773438 0.898438 L 259.773438 259.648438 L 1.023438 259.648438 Z M 1.023438 0.898438 " clip-rule="nonzero"/></clipPath><clipPath id="2fed92c3ae"><rect x="0" width="260" y="0" height="260"/></clipPath></defs><path fill="#11efe3" d="M 208.882812 602.871094 L 368.925781 602.890625 L 368.925781 398.332031 L 158.964844 398.304688 C 161.039062 475.605469 179.402344 546.46875 208.882812 602.871094 Z M 208.882812 602.871094 " fill-opacity="1" fill-rule="nonzero"/><g clip-path="url(#265fe73a76)"><path fill="#11efe3" d="M 226.15625 134.929688 L 368.925781 134.953125 L 368.925781 35.675781 C 313.488281 41.265625 263.480469 78.082031 226.15625 134.929688 Z M 226.15625 134.929688 " fill-opacity="1" fill-rule="nonzero"/></g><path fill="#11efe3" d="M 158.964844 368.890625 L 368.925781 368.925781 L 368.925781 164.359375 L 208.910156 164.335938 C 179.429688 220.722656 161.050781 291.585938 158.964844 368.890625 Z M 158.964844 368.890625 " fill-opacity="1" fill-rule="nonzero"/><g clip-path="url(#1db6b32cdb)"><path fill="#11efe3" d="M 129.566406 398.296875 L 53.746094 398.289062 C 45.632812 398.289062 39.042969 391.703125 39.042969 383.585938 C 39.042969 375.46875 45.632812 368.882812 53.746094 368.882812 L 129.558594 368.890625 C 131.535156 292.828125 148.6875 222.496094 176.628906 164.335938 L 112.6875 164.332031 C 64.0625 224.289062 34.847656 300.605469 34.847656 383.644531 C 34.847656 466.636719 64.03125 542.917969 112.621094 602.863281 L 176.59375 602.871094 C 148.671875 544.695312 131.527344 474.363281 129.566406 398.296875 Z M 129.566406 398.296875 " fill-opacity="1" fill-rule="nonzero"/></g><path fill="#11efe3" d="M 250.960938 61.136719 C 209.082031 78.433594 171.285156 103.648438 139.4375 134.921875 L 192.289062 134.929688 C 209.207031 106.179688 228.964844 81.21875 250.960938 61.136719 Z M 250.960938 61.136719 " fill-opacity="1" fill-rule="nonzero"/><path fill="#11efe3" d="M 192.253906 632.269531 L 139.355469 632.261719 C 171.21875 663.570312 209.042969 688.808594 250.960938 706.125 C 228.945312 686.023438 209.183594 661.042969 192.253906 632.269531 Z M 192.253906 632.269531 " fill-opacity="1" fill-rule="nonzero"/><path fill="#11efe3" d="M 575.007812 134.988281 L 627.902344 134.996094 C 596.046875 103.6875 558.222656 78.449219 516.3125 61.144531 C 538.316406 81.234375 558.085938 106.214844 575.007812 134.988281 Z M 575.007812 134.988281 " fill-opacity="1" fill-rule="nonzero"/><g clip-path="url(#84f77e5c55)"><path fill="#11efe3" d="M 368.925781 731.582031 L 368.925781 632.296875 L 226.121094 632.277344 C 263.445312 689.15625 313.472656 725.996094 368.925781 731.582031 Z M 368.925781 731.582031 " fill-opacity="1" fill-rule="nonzero"/></g><path fill="#11efe3" d="M 516.3125 706.125 C 558.195312 688.824219 595.980469 663.617188 627.828125 632.34375 L 574.976562 632.335938 C 558.0625 661.078125 538.308594 686.039062 516.3125 706.125 Z M 516.3125 706.125 " fill-opacity="1" fill-rule="nonzero"/><path fill="#11efe3" d="M 654.625 164.402344 L 590.652344 164.394531 C 618.589844 222.5625 635.722656 292.894531 637.6875 368.96875 L 713.503906 368.976562 C 721.621094 368.976562 728.207031 375.566406 728.207031 383.679688 C 728.207031 391.796875 721.621094 398.382812 713.503906 398.382812 L 637.695312 398.375 C 635.722656 474.4375 618.574219 544.769531 590.628906 602.929688 L 654.574219 602.9375 C 703.199219 542.976562 732.40625 466.664062 732.40625 383.636719 C 732.40625 300.636719 703.21875 224.355469 654.625 164.402344 Z M 654.625 164.402344 " fill-opacity="1" fill-rule="nonzero"/><path fill="#11efe3" d="M 558.378906 164.390625 L 398.332031 164.367188 L 398.332031 368.925781 L 608.296875 368.957031 C 606.222656 291.652344 587.851562 220.789062 558.378906 164.390625 Z M 558.378906 164.390625 " fill-opacity="1" fill-rule="nonzero"/><g clip-path="url(#b5faebb5bc)"><path fill="#11efe3" d="M 398.332031 35.675781 L 398.332031 134.960938 L 541.136719 134.984375 C 503.8125 78.09375 453.777344 41.257812 398.332031 35.675781 Z M 398.332031 35.675781 " fill-opacity="1" fill-rule="nonzero"/></g><path fill="#11efe3" d="M 608.296875 398.371094 L 398.332031 398.332031 L 398.332031 602.890625 L 558.355469 602.914062 C 587.835938 546.535156 606.207031 475.671875 608.296875 398.371094 Z M 608.296875 398.371094 " fill-opacity="1" fill-rule="nonzero"/><g clip-path="url(#c88acf5e53)"><path fill="#11efe3" d="M 398.332031 632.304688 L 398.332031 731.582031 C 453.773438 726 503.785156 689.175781 541.109375 632.328125 Z M 398.332031 632.304688 " fill-opacity="1" fill-rule="nonzero"/></g><g mask="url(#82199363de)"><g transform="matrix(1, 0, 0, 1, 461, 443)"><g clip-path="url(#d93ffb0b7e)"><g clip-path="url(#2e25db17de)"><path fill="#057dcd" d="M 278.785156 171.558594 C 279.4375 166.605469 288.554688 159.28125 288.851562 154.296875 C 289.382812 145.230469 277.128906 127.492188 268.714844 124.085938 C 255.351562 118.679688 187.4375 121.207031 187.4375 121.207031 C 180.800781 109.605469 199.265625 80.953125 204.339844 68.582031 C 211.796875 50.453125 210.539062 26.398438 201.113281 14.042969 C 189.597656 -1.054688 168.460938 -2.058594 168.023438 4.695312 C 164.875 53.695312 155.496094 67.285156 142.9375 76.972656 C 135.394531 82.792969 128.796875 87.886719 125.320312 96.753906 C 103.914062 151.265625 88.054688 163.882812 78.988281 163.882812 L 72.945312 163.882812 L 72.945312 287.777344 L 136.386719 299.578125 C 136.386719 299.578125 215.152344 307.035156 239.953125 299.578125 C 247.757812 297.242188 261.226562 285.523438 264.40625 278 C 266.226562 273.683594 263.703125 263.46875 265.851562 259.300781 C 269.023438 253.128906 282.410156 245.394531 282.398438 237.003906 C 282.386719 231.023438 275.414062 220.671875 275.921875 214.707031 C 276.425781 208.734375 288.878906 200.550781 288.867188 194.570312 C 288.839844 188.296875 277.957031 177.78125 278.785156 171.558594 Z M 278.785156 171.558594 " fill-opacity="1" fill-rule="nonzero"/></g><g clip-path="url(#1e0fcff546)"><path fill="#057dcd" d="M 60.859375 284.757812 C 60.859375 291.433594 55.445312 296.84375 48.769531 296.84375 L 12.507812 296.84375 C 5.832031 296.84375 0.421875 291.433594 0.421875 284.757812 L 0.421875 169.929688 C 0.421875 163.253906 5.832031 157.839844 12.507812 157.839844 L 48.769531 157.839844 C 55.445312 157.839844 60.859375 163.253906 60.859375 169.929688 Z M 60.859375 284.757812 " fill-opacity="1" fill-rule="nonzero"/></g></g></g></g><g mask="url(#7b42f58cfe)"><g transform="matrix(1, 0, 0, 1, 34, 35)"><g clip-path="url(#2fed92c3ae)"><g clip-path="url(#4e27265a2f)"><path fill="#057dcd" d="M 221.972656 38.804688 C 197.527344 14.359375 165.023438 0.898438 130.453125 0.898438 C 95.878906 0.898438 63.378906 14.359375 38.933594 38.804688 C 14.488281 63.25 1.023438 95.753906 1.023438 130.324219 C 1.023438 164.894531 14.488281 197.398438 38.933594 221.84375 C 63.378906 246.289062 95.878906 259.753906 130.453125 259.753906 C 165.023438 259.753906 197.527344 246.289062 221.972656 221.84375 C 246.417969 197.398438 259.878906 164.898438 259.878906 130.324219 C 259.878906 95.753906 246.417969 63.25 221.972656 38.804688 Z M 221.972656 38.804688 " fill-opacity="1" fill-rule="nonzero"/></g><path fill="#ffffff" d="M 161.363281 68.851562 C 162.375 69.863281 163.335938 70.921875 164.242188 72.03125 C 165.152344 73.136719 166.003906 74.285156 166.800781 75.476562 C 167.59375 76.664062 168.328125 77.890625 169.003906 79.15625 C 169.679688 80.417969 170.289062 81.710938 170.839844 83.03125 C 171.386719 84.355469 171.867188 85.703125 172.285156 87.070312 C 172.699219 88.441406 173.046875 89.828125 173.324219 91.234375 C 173.605469 92.636719 173.816406 94.050781 173.957031 95.476562 C 174.097656 96.902344 174.164062 98.328125 174.164062 99.761719 C 174.164062 101.191406 174.097656 102.621094 173.957031 104.046875 C 173.816406 105.46875 173.605469 106.882812 173.324219 108.289062 C 173.046875 109.691406 172.699219 111.078125 172.285156 112.449219 C 171.867188 113.820312 171.386719 115.164062 170.839844 116.488281 C 170.289062 117.8125 169.679688 119.105469 169.003906 120.367188 C 168.328125 121.628906 167.59375 122.855469 166.800781 124.046875 C 166.003906 125.234375 165.152344 126.386719 164.242188 127.492188 C 163.335938 128.597656 162.375 129.65625 161.363281 130.671875 C 160.351562 131.683594 159.292969 132.640625 158.183594 133.550781 C 157.078125 134.457031 155.929688 135.3125 154.738281 136.105469 C 153.546875 136.902344 152.320312 137.636719 151.058594 138.3125 C 149.796875 138.988281 148.503906 139.597656 147.179688 140.144531 C 145.859375 140.695312 144.511719 141.175781 143.144531 141.589844 C 141.773438 142.007812 140.386719 142.355469 138.980469 142.632812 C 137.578125 142.914062 136.164062 143.121094 134.738281 143.261719 C 133.3125 143.402344 131.886719 143.472656 130.453125 143.472656 C 129.023438 143.472656 127.59375 143.402344 126.167969 143.261719 C 124.746094 143.121094 123.328125 142.914062 121.925781 142.632812 C 120.523438 142.355469 119.132812 142.007812 117.765625 141.589844 C 116.394531 141.175781 115.046875 140.695312 113.726562 140.144531 C 112.402344 139.597656 111.109375 138.988281 109.847656 138.3125 C 108.585938 137.636719 107.359375 136.902344 106.167969 136.105469 C 104.976562 135.3125 103.828125 134.457031 102.722656 133.550781 C 101.617188 132.640625 100.558594 131.683594 99.542969 130.671875 C 98.53125 129.65625 97.570312 128.597656 96.664062 127.492188 C 95.753906 126.386719 94.902344 125.234375 94.109375 124.046875 C 93.3125 122.855469 92.578125 121.628906 91.902344 120.367188 C 91.226562 119.105469 90.617188 117.8125 90.070312 116.488281 C 89.519531 115.164062 89.039062 113.820312 88.625 112.449219 C 88.207031 111.078125 87.859375 109.691406 87.582031 108.289062 C 87.300781 106.882812 87.09375 105.46875 86.953125 104.046875 C 86.8125 102.621094 86.742188 101.191406 86.742188 99.761719 C 86.742188 98.328125 86.8125 96.902344 86.953125 95.476562 C 87.09375 94.050781 87.300781 92.636719 87.582031 91.234375 C 87.859375 89.828125 88.207031 88.441406 88.625 87.070312 C 89.039062 85.703125 89.519531 84.355469 90.070312 83.03125 C 90.617188 81.710938 91.226562 80.417969 91.902344 79.15625 C 92.578125 77.890625 93.3125 76.664062 94.109375 75.476562 C 94.902344 74.285156 95.753906 73.136719 96.664062 72.03125 C 97.570312 70.921875 98.53125 69.863281 99.542969 68.851562 C 100.558594 67.839844 101.617188 66.878906 102.722656 65.96875 C 103.828125 65.0625 104.976562 64.210938 106.167969 63.414062 C 107.359375 62.621094 108.585938 61.882812 109.847656 61.210938 C 111.109375 60.535156 112.402344 59.921875 113.726562 59.375 C 115.046875 58.828125 116.394531 58.347656 117.765625 57.929688 C 119.132812 57.515625 120.523438 57.167969 121.925781 56.886719 C 123.328125 56.609375 124.746094 56.398438 126.167969 56.257812 C 127.59375 56.117188 129.023438 56.046875 130.453125 56.046875 C 131.886719 56.046875 133.3125 56.117188 134.738281 56.257812 C 136.164062 56.398438 137.578125 56.609375 138.980469 56.886719 C 140.386719 57.167969 141.773438 57.515625 143.144531 57.929688 C 144.511719 58.347656 145.859375 58.828125 147.179688 59.375 C 148.503906 59.921875 149.796875 60.535156 151.058594 61.210938 C 152.320312 61.882812 153.546875 62.621094 154.738281 63.414062 C 155.929688 64.210938 157.078125 65.0625 158.183594 65.96875 C 159.292969 66.878906 160.351562 67.839844 161.363281 68.851562 Z M 161.363281 68.851562 " fill-opacity="1" fill-rule="nonzero"/><path fill="#ffffff" d="M 131.71875 162.898438 L 129.191406 162.898438 C 93.472656 162.898438 63.394531 187.011719 54.332031 219.847656 C 74.859375 237.324219 101.441406 247.894531 130.453125 247.894531 C 159.460938 247.894531 186.046875 237.324219 206.574219 219.847656 C 197.507812 187.011719 167.433594 162.898438 131.714844 162.898438 Z M 131.71875 162.898438 " fill-opacity="1" fill-rule="nonzero"/></g></g></g></svg>