<svg xmlns="http://www.w3.org/2000/svg" xmlns:xlink="http://www.w3.org/1999/xlink" width="1024" zoomAndPan="magnify" viewBox="0 0 768 767.999994" height="1024" preserveAspectRatio="xMidYMid meet" version="1.0"><defs><filter x="0%" y="0%" width="100%" height="100%" id="9f6fd3a52a"><feColorMatrix values="0 0 0 0 1 0 0 0 0 1 0 0 0 0 1 0 0 0 1 0" color-interpolation-filters="sRGB"/></filter><mask id="2bc925a1e7"><g filter="url(#9f6fd3a52a)"><rect x="-76.8" width="921.6" fill="#000000" y="-76.799999" height="921.599993" fill-opacity="0.7"/></g></mask><clipPath id="b34d0f04be"><path d="M 319 319 L 523.601562 319 L 523.601562 523.339844 L 319 523.339844 Z M 319 319 " clip-rule="nonzero"/></clipPath><clipPath id="d9c7ee369a"><rect x="0" width="524" y="0" height="524"/></clipPath></defs><path fill="#11efe3" d="M 562.257812 -1.15625 L 307.546875 -1.15625 L 307.546875 140.75 C 307.535156 142.046875 307.492188 143.339844 307.414062 144.632812 C 307.339844 145.929688 307.234375 147.21875 307.097656 148.507812 C 306.957031 149.800781 306.789062 151.082031 306.585938 152.363281 C 306.386719 153.644531 306.15625 154.921875 305.890625 156.191406 C 305.628906 157.460938 305.335938 158.722656 305.011719 159.976562 C 304.6875 161.234375 304.332031 162.480469 303.945312 163.71875 C 303.558594 164.953125 303.144531 166.183594 302.699219 167.398438 C 302.253906 168.617188 301.777344 169.824219 301.273438 171.019531 C 300.769531 172.210938 300.238281 173.394531 299.675781 174.5625 C 299.113281 175.730469 298.523438 176.886719 297.90625 178.023438 C 297.289062 179.164062 296.644531 180.289062 295.96875 181.398438 C 295.296875 182.503906 294.597656 183.597656 293.871094 184.671875 C 293.144531 185.742188 292.394531 186.800781 291.617188 187.835938 C 290.839844 188.875 290.035156 189.890625 289.210938 190.890625 C 288.382812 191.890625 287.53125 192.867188 286.65625 193.824219 C 285.78125 194.78125 284.882812 195.714844 283.960938 196.628906 C 283.042969 197.539062 282.101562 198.429688 281.136719 199.296875 C 280.171875 200.164062 279.1875 201.007812 278.183594 201.828125 C 277.175781 202.644531 276.152344 203.441406 275.109375 204.207031 C 274.066406 204.976562 273.003906 205.71875 271.921875 206.4375 C 270.84375 207.15625 269.746094 207.84375 268.632812 208.507812 C 267.519531 209.171875 266.390625 209.808594 265.246094 210.417969 C 264.101562 211.027344 262.941406 211.605469 261.769531 212.160156 C 260.59375 212.710938 259.410156 213.234375 258.210938 213.726562 C 257.011719 214.222656 255.800781 214.6875 254.582031 215.121094 C 253.359375 215.558594 252.128906 215.960938 250.886719 216.335938 C 249.648438 216.710938 248.398438 217.058594 247.140625 217.371094 C 245.882812 217.6875 244.617188 217.96875 243.34375 218.222656 C 242.074219 218.472656 240.796875 218.695312 239.515625 218.886719 C 238.230469 219.074219 236.945312 219.234375 235.65625 219.363281 C 234.363281 219.488281 233.070312 219.585938 231.777344 219.648438 C 230.480469 219.714844 229.1875 219.746094 227.890625 219.75 L 86.175781 219.75 L 86.175781 720.683594 C 86.167969 722.136719 86.226562 723.589844 86.363281 725.035156 C 86.496094 726.480469 86.699219 727.917969 86.976562 729.34375 C 87.25 730.773438 87.597656 732.179688 88.011719 733.574219 C 88.429688 734.964844 88.910156 736.335938 89.460938 737.679688 C 90.011719 739.023438 90.628906 740.335938 91.3125 741.621094 C 91.992188 742.90625 92.734375 744.152344 93.539062 745.359375 C 94.34375 746.570312 95.207031 747.738281 96.128906 748.863281 C 97.046875 749.988281 98.019531 751.0625 99.046875 752.089844 C 100.074219 753.117188 101.152344 754.09375 102.273438 755.015625 C 103.398438 755.9375 104.5625 756.800781 105.773438 757.605469 C 106.984375 758.410156 108.226562 759.15625 109.511719 759.835938 C 110.792969 760.519531 112.109375 761.136719 113.453125 761.691406 C 114.796875 762.242188 116.164062 762.726562 117.554688 763.144531 C 118.949219 763.558594 120.355469 763.90625 121.785156 764.183594 C 123.210938 764.460938 124.644531 764.667969 126.09375 764.800781 C 127.539062 764.9375 128.988281 765 130.441406 764.988281 L 562.257812 764.988281 C 563.722656 765.003906 565.183594 764.945312 566.640625 764.8125 C 568.101562 764.683594 569.546875 764.480469 570.984375 764.207031 C 572.425781 763.933594 573.84375 763.589844 575.25 763.179688 C 576.652344 762.765625 578.035156 762.285156 579.390625 761.734375 C 580.75 761.1875 582.074219 760.574219 583.371094 759.894531 C 584.667969 759.214844 585.929688 758.476562 587.152344 757.671875 C 588.378906 756.871094 589.558594 756.007812 590.699219 755.089844 C 591.839844 754.171875 592.929688 753.199219 593.972656 752.171875 C 595.019531 751.148438 596.007812 750.074219 596.949219 748.949219 C 597.886719 747.824219 598.765625 746.660156 599.589844 745.449219 C 600.414062 744.238281 601.175781 742.992188 601.878906 741.707031 C 602.578125 740.421875 603.214844 739.105469 603.789062 737.757812 C 604.359375 736.410156 604.863281 735.039062 605.300781 733.640625 C 605.738281 732.246094 606.105469 730.828125 606.402344 729.394531 C 606.699219 727.964844 606.925781 726.519531 607.082031 725.0625 C 607.238281 723.609375 607.324219 722.148438 607.335938 720.683594 L 607.335938 43.109375 C 607.324219 41.644531 607.238281 40.1875 607.078125 38.730469 C 606.921875 37.277344 606.695312 35.835938 606.394531 34.402344 C 606.097656 32.96875 605.730469 31.554688 605.292969 30.160156 C 604.851562 28.765625 604.347656 27.394531 603.777344 26.046875 C 603.203125 24.699219 602.566406 23.386719 601.867188 22.101562 C 601.164062 20.816406 600.402344 19.570312 599.578125 18.363281 C 598.753906 17.152344 597.871094 15.988281 596.933594 14.867188 C 595.996094 13.742188 595.003906 12.667969 593.960938 11.644531 C 592.917969 10.621094 591.824219 9.648438 590.6875 8.730469 C 589.546875 7.8125 588.367188 6.953125 587.140625 6.152344 C 585.917969 5.347656 584.660156 4.609375 583.363281 3.929688 C 582.066406 3.253906 580.738281 2.640625 579.382812 2.09375 C 578.027344 1.542969 576.644531 1.0625 575.242188 0.652344 C 573.839844 0.238281 572.417969 -0.101562 570.980469 -0.375 C 569.542969 -0.648438 568.097656 -0.851562 566.640625 -0.980469 C 565.183594 -1.113281 563.722656 -1.171875 562.257812 -1.15625 Z M 521.777344 645.121094 L 171.738281 645.121094 L 171.738281 610.386719 L 521.777344 610.386719 Z M 521.777344 540.917969 L 171.738281 540.917969 L 171.738281 505.800781 L 521.777344 505.800781 Z M 521.777344 436.371094 L 171.738281 436.371094 L 171.738281 401.367188 L 521.777344 401.367188 Z M 521.777344 331.824219 L 171.738281 331.824219 L 171.738281 297.511719 L 521.777344 297.511719 Z M 521.777344 331.824219 " fill-opacity="1" fill-rule="nonzero"/><path fill="#11efe3" d="M 272.347656 140.75 L 272.347656 23.15625 L 191.304688 103.929688 L 110.835938 185.246094 L 227.890625 185.246094 C 229.347656 185.25 230.804688 185.183594 232.253906 185.042969 C 233.707031 184.902344 235.144531 184.691406 236.578125 184.410156 C 238.007812 184.128906 239.421875 183.777344 240.816406 183.355469 C 242.210938 182.933594 243.582031 182.445312 244.929688 181.890625 C 246.277344 181.332031 247.59375 180.710938 248.882812 180.023438 C 250.167969 179.339844 251.417969 178.589844 252.628906 177.78125 C 253.84375 176.972656 255.011719 176.105469 256.140625 175.179688 C 257.265625 174.253906 258.34375 173.277344 259.375 172.246094 C 260.40625 171.214844 261.382812 170.132812 262.308594 169.007812 C 263.230469 167.878906 264.097656 166.707031 264.90625 165.496094 C 265.714844 164.28125 266.460938 163.03125 267.148438 161.746094 C 267.832031 160.457031 268.453125 159.140625 269.007812 157.792969 C 269.5625 156.445312 270.050781 155.070312 270.46875 153.675781 C 270.890625 152.28125 271.242188 150.867188 271.519531 149.4375 C 271.800781 148.003906 272.011719 146.5625 272.148438 145.113281 C 272.289062 143.660156 272.355469 142.207031 272.347656 140.75 Z M 272.347656 140.75 " fill-opacity="1" fill-rule="nonzero"/><g mask="url(#2bc925a1e7)"><g transform="matrix(1, 0, 0, 1, 194, 216)"><g clip-path="url(#d9c7ee369a)"><path fill="#057dcd" d="M 214.15625 416.78125 C 210.011719 416.785156 205.875 416.660156 201.738281 416.40625 C 197.601562 416.152344 193.480469 415.773438 189.367188 415.269531 C 185.253906 414.765625 181.160156 414.132812 177.085938 413.375 C 173.015625 412.621094 168.96875 411.738281 164.949219 410.734375 C 160.929688 409.730469 156.945312 408.601562 152.992188 407.351562 C 149.042969 406.101562 145.136719 404.730469 141.269531 403.242188 C 137.402344 401.753906 133.585938 400.144531 129.820312 398.421875 C 126.050781 396.699219 122.339844 394.859375 118.683594 392.90625 C 115.03125 390.957031 111.4375 388.894531 107.910156 386.722656 C 104.382812 384.550781 100.925781 382.269531 97.535156 379.886719 C 94.148438 377.5 90.835938 375.015625 87.601562 372.425781 C 84.367188 369.839844 81.214844 367.152344 78.140625 364.371094 C 75.070312 361.589844 72.089844 358.71875 69.195312 355.753906 C 66.300781 352.789062 63.5 349.738281 60.792969 346.601562 C 58.085938 343.464844 55.476562 340.246094 52.96875 336.949219 C 50.460938 333.652344 48.054688 330.28125 45.75 326.835938 C 43.449219 323.394531 41.253906 319.882812 39.167969 316.300781 C 37.082031 312.722656 35.105469 309.082031 33.242188 305.382812 C 31.378906 301.679688 29.628906 297.925781 27.996094 294.117188 C 26.363281 290.3125 24.851562 286.457031 23.453125 282.554688 C 22.058594 278.65625 20.78125 274.714844 19.628906 270.734375 C 18.472656 266.757812 17.441406 262.746094 16.535156 258.703125 C 15.625 254.660156 14.84375 250.59375 14.183594 246.503906 C 13.527344 242.414062 12.996094 238.304688 12.589844 234.183594 C 12.183594 230.058594 11.902344 225.925781 11.75 221.789062 C 11.597656 217.648438 11.570312 213.503906 11.671875 209.363281 C 11.777344 205.222656 12.003906 201.085938 12.359375 196.957031 C 12.714844 192.832031 13.195312 188.71875 13.804688 184.621094 C 14.414062 180.519531 15.148438 176.445312 16.003906 172.390625 C 16.863281 168.339844 17.84375 164.316406 18.949219 160.320312 C 20.054688 156.328125 21.28125 152.375 22.632812 148.457031 C 23.980469 144.539062 25.445312 140.664062 27.03125 136.835938 C 28.617188 133.011719 30.320312 129.234375 32.136719 125.511719 C 33.957031 121.789062 35.886719 118.125 37.929688 114.519531 C 39.972656 110.914062 42.125 107.375 44.382812 103.902344 C 46.644531 100.429688 49.007812 97.03125 51.476562 93.703125 C 53.945312 90.375 56.515625 87.128906 59.183594 83.957031 C 61.851562 80.789062 64.613281 77.703125 67.472656 74.703125 C 70.328125 71.703125 73.277344 68.792969 76.3125 65.976562 C 79.347656 63.15625 82.46875 60.433594 85.671875 57.804688 C 88.875 55.175781 92.15625 52.652344 95.515625 50.222656 C 98.875 47.796875 102.304688 45.476562 105.804688 43.261719 C 109.304688 41.046875 112.871094 38.941406 116.503906 36.945312 C 120.132812 34.945312 123.820312 33.0625 127.566406 31.292969 C 131.3125 29.523438 135.109375 27.871094 138.957031 26.332031 C 142.804688 24.796875 146.695312 23.378906 150.628906 22.082031 C 154.566406 20.78125 158.535156 19.605469 162.542969 18.550781 C 166.550781 17.496094 170.585938 16.566406 174.648438 15.761719 C 178.714844 14.953125 182.796875 14.273438 186.902344 13.714844 C 191.007812 13.160156 195.128906 12.730469 199.261719 12.429688 C 203.394531 12.125 207.53125 11.949219 211.671875 11.902344 C 215.816406 11.851562 219.957031 11.929688 224.09375 12.136719 C 228.234375 12.339844 232.359375 12.671875 236.480469 13.132812 C 240.597656 13.589844 244.695312 14.175781 248.777344 14.886719 C 252.859375 15.597656 256.917969 16.429688 260.945312 17.390625 C 264.976562 18.351562 268.976562 19.433594 272.9375 20.636719 C 276.902344 21.84375 280.828125 23.167969 284.710938 24.613281 C 288.59375 26.058594 292.425781 27.625 296.214844 29.304688 C 300 30.988281 303.730469 32.78125 307.410156 34.691406 C 311.085938 36.601562 314.699219 38.625 318.25 40.757812 C 321.804688 42.890625 325.289062 45.128906 328.703125 47.476562 C 332.117188 49.820312 335.457031 52.269531 338.722656 54.820312 C 341.988281 57.371094 345.167969 60.023438 348.273438 62.769531 C 351.375 65.515625 354.386719 68.355469 357.316406 71.285156 C 360.832031 74.800781 364.214844 78.4375 367.464844 82.199219 C 370.714844 85.960938 373.820312 89.839844 376.785156 93.832031 C 379.75 97.824219 382.5625 101.917969 385.222656 106.117188 C 387.882812 110.316406 390.386719 114.605469 392.734375 118.988281 C 395.078125 123.375 397.257812 127.835938 399.277344 132.382812 C 401.292969 136.925781 403.136719 141.539062 404.816406 146.21875 C 406.492188 150.898438 407.992188 155.632812 409.320312 160.425781 C 410.648438 165.214844 411.796875 170.046875 412.765625 174.925781 C 413.738281 179.800781 414.527344 184.703125 415.136719 189.636719 C 415.746094 194.574219 416.175781 199.523438 416.417969 204.488281 C 416.664062 209.453125 416.726562 214.421875 416.605469 219.390625 C 416.484375 224.359375 416.179688 229.320312 415.691406 234.265625 C 415.203125 239.214844 414.535156 244.136719 413.6875 249.035156 C 412.835938 253.933594 411.808594 258.792969 410.597656 263.617188 C 409.390625 268.4375 408.007812 273.210938 406.449219 277.929688 C 404.886719 282.648438 403.15625 287.308594 401.253906 291.898438 C 399.351562 296.492188 397.28125 301.007812 395.042969 305.449219 C 392.808594 309.890625 390.414062 314.242188 387.855469 318.503906 C 385.300781 322.769531 382.589844 326.929688 379.726562 330.996094 C 376.863281 335.058594 373.851562 339.011719 370.695312 342.855469 C 367.542969 346.695312 364.25 350.417969 360.820312 354.015625 C 357.390625 357.613281 353.835938 361.082031 350.148438 364.421875 C 346.464844 367.757812 342.664062 370.953125 338.742188 374.011719 C 334.820312 377.066406 330.792969 379.976562 326.660156 382.738281 C 322.523438 385.496094 318.292969 388.101562 313.964844 390.546875 C 309.640625 392.996094 305.226562 395.28125 300.734375 397.40625 C 296.238281 399.527344 291.671875 401.484375 287.03125 403.269531 C 282.390625 405.054688 277.691406 406.667969 272.933594 408.109375 C 268.175781 409.546875 263.371094 410.8125 258.519531 411.898438 C 253.667969 412.984375 248.785156 413.886719 243.867188 414.613281 C 238.949219 415.339844 234.007812 415.882812 229.050781 416.246094 C 224.09375 416.605469 219.128906 416.785156 214.15625 416.78125 Z M 214.15625 56.492188 C 211.140625 56.484375 208.125 56.566406 205.109375 56.730469 C 202.097656 56.898438 199.089844 57.148438 196.09375 57.488281 C 193.09375 57.824219 190.105469 58.25 187.132812 58.757812 C 184.15625 59.269531 181.199219 59.863281 178.261719 60.542969 C 175.320312 61.222656 172.402344 61.984375 169.503906 62.832031 C 166.609375 63.675781 163.738281 64.605469 160.894531 65.617188 C 158.050781 66.628906 155.238281 67.71875 152.457031 68.890625 C 149.675781 70.0625 146.929688 71.3125 144.222656 72.644531 C 141.511719 73.972656 138.84375 75.378906 136.214844 76.859375 C 133.585938 78.34375 131.003906 79.898438 128.464844 81.53125 C 125.921875 83.160156 123.433594 84.863281 120.992188 86.636719 C 118.550781 88.410156 116.160156 90.25 113.824219 92.160156 C 111.488281 94.070312 109.207031 96.046875 106.984375 98.085938 C 104.761719 100.128906 102.597656 102.230469 100.496094 104.394531 C 98.394531 106.558594 96.355469 108.78125 94.378906 111.066406 C 92.40625 113.347656 90.496094 115.683594 88.65625 118.074219 C 86.8125 120.464844 85.042969 122.90625 83.339844 125.398438 C 81.640625 127.890625 80.011719 130.429688 78.457031 133.015625 C 76.898438 135.601562 75.417969 138.230469 74.015625 140.902344 C 72.609375 143.574219 71.28125 146.28125 70.03125 149.027344 C 68.78125 151.773438 67.613281 154.554688 66.523438 157.371094 C 65.429688 160.183594 64.421875 163.027344 63.496094 165.898438 C 62.566406 168.769531 61.722656 171.664062 60.960938 174.585938 C 60.199219 177.503906 59.523438 180.445312 58.929688 183.402344 C 58.335938 186.363281 57.828125 189.335938 57.40625 192.324219 C 56.984375 195.3125 56.644531 198.308594 56.394531 201.316406 C 56.144531 204.324219 55.980469 207.335938 55.902344 210.355469 C 55.824219 213.371094 55.832031 216.386719 55.925781 219.402344 C 56.019531 222.421875 56.203125 225.429688 56.46875 228.4375 C 56.738281 231.441406 57.089844 234.4375 57.53125 237.425781 C 57.96875 240.410156 58.492188 243.382812 59.101562 246.335938 C 59.710938 249.292969 60.40625 252.226562 61.183594 255.144531 C 61.960938 258.058594 62.820312 260.949219 63.761719 263.816406 C 64.707031 266.683594 65.730469 269.523438 66.835938 272.328125 C 67.941406 275.136719 69.128906 277.910156 70.394531 280.652344 C 71.660156 283.390625 73 286.09375 74.421875 288.753906 C 75.839844 291.417969 77.335938 294.039062 78.90625 296.617188 C 80.476562 299.191406 82.117188 301.722656 83.832031 304.207031 C 85.546875 306.691406 87.332031 309.121094 89.1875 311.503906 C 91.039062 313.882812 92.960938 316.210938 94.949219 318.480469 C 96.9375 320.75 98.988281 322.960938 101.101562 325.117188 C 103.21875 327.269531 105.390625 329.359375 107.625 331.390625 C 109.859375 333.417969 112.152344 335.378906 114.496094 337.277344 C 116.84375 339.175781 119.242188 341.003906 121.695312 342.761719 C 124.148438 344.523438 126.648438 346.210938 129.195312 347.828125 C 131.742188 349.445312 134.335938 350.984375 136.972656 352.453125 C 139.609375 353.921875 142.285156 355.3125 145.003906 356.628906 C 147.71875 357.941406 150.472656 359.175781 153.257812 360.335938 C 156.046875 361.492188 158.863281 362.566406 161.710938 363.5625 C 164.5625 364.558594 167.4375 365.46875 170.339844 366.300781 C 173.238281 367.132812 176.160156 367.878906 179.105469 368.539062 C 182.050781 369.203125 185.011719 369.78125 187.988281 370.273438 C 190.964844 370.769531 193.953125 371.175781 196.953125 371.496094 C 199.957031 371.820312 202.960938 372.054688 205.976562 372.203125 C 208.992188 372.355469 212.007812 372.417969 215.023438 372.394531 C 218.042969 372.371094 221.058594 372.261719 224.070312 372.0625 C 227.078125 371.867188 230.082031 371.585938 233.078125 371.21875 C 236.074219 370.847656 239.054688 370.394531 242.023438 369.855469 C 244.996094 369.316406 247.945312 368.695312 250.878906 367.984375 C 253.8125 367.277344 256.722656 366.484375 259.613281 365.609375 C 262.5 364.734375 265.359375 363.777344 268.195312 362.738281 C 271.027344 361.699219 273.828125 360.578125 276.597656 359.378906 C 279.367188 358.179688 282.097656 356.902344 284.792969 355.546875 C 287.492188 354.1875 290.144531 352.757812 292.757812 351.25 C 295.371094 349.738281 297.941406 348.15625 300.464844 346.5 C 302.988281 344.847656 305.460938 343.121094 307.882812 341.320312 C 310.308594 339.523438 312.679688 337.660156 314.996094 335.726562 C 317.3125 333.792969 319.574219 331.792969 321.777344 329.730469 C 323.980469 327.667969 326.121094 325.542969 328.203125 323.359375 C 330.28125 321.171875 332.296875 318.929688 334.25 316.628906 C 336.203125 314.328125 338.089844 311.972656 339.90625 309.5625 C 341.722656 307.152344 343.46875 304.695312 345.144531 302.183594 C 346.820312 299.675781 348.425781 297.121094 349.953125 294.519531 C 351.484375 291.917969 352.9375 289.273438 354.316406 286.589844 C 355.695312 283.90625 356.996094 281.183594 358.21875 278.421875 C 359.441406 275.664062 360.582031 272.871094 361.644531 270.046875 C 362.707031 267.222656 363.6875 264.371094 364.585938 261.488281 C 365.484375 258.609375 366.300781 255.703125 367.035156 252.777344 C 367.765625 249.847656 368.414062 246.902344 368.976562 243.9375 C 369.542969 240.972656 370.019531 237.996094 370.410156 235.003906 C 370.804688 232.011719 371.113281 229.011719 371.332031 226 C 371.554688 222.992188 371.6875 219.976562 371.734375 216.960938 C 371.785156 213.941406 371.746094 210.925781 371.621094 207.910156 C 371.496094 204.894531 371.285156 201.886719 370.988281 198.882812 C 370.691406 195.878906 370.308594 192.886719 369.835938 189.90625 C 369.367188 186.925781 368.816406 183.960938 368.175781 181.011719 C 367.539062 178.0625 366.816406 175.132812 366.007812 172.222656 C 365.203125 169.316406 364.3125 166.433594 363.339844 163.578125 C 362.367188 160.71875 361.316406 157.894531 360.183594 155.097656 C 359.046875 152.300781 357.835938 149.539062 356.542969 146.8125 C 355.25 144.082031 353.882812 141.394531 352.433594 138.746094 C 350.988281 136.097656 349.46875 133.492188 347.871094 130.929688 C 346.277344 128.371094 344.609375 125.855469 342.871094 123.390625 C 341.128906 120.925781 339.320312 118.511719 337.441406 116.148438 C 335.566406 113.785156 333.621094 111.480469 331.609375 109.230469 C 329.601562 106.976562 327.527344 104.785156 325.390625 102.65625 C 321.75 99.007812 317.9375 95.550781 313.953125 92.28125 C 309.972656 89.011719 305.839844 85.941406 301.554688 83.078125 C 297.273438 80.210938 292.859375 77.566406 288.316406 75.132812 C 283.769531 72.699219 279.121094 70.496094 274.359375 68.523438 C 269.601562 66.546875 264.753906 64.808594 259.824219 63.308594 C 254.894531 61.808594 249.902344 60.554688 244.851562 59.546875 C 239.796875 58.535156 234.707031 57.777344 229.578125 57.265625 C 224.449219 56.753906 219.308594 56.496094 214.15625 56.492188 Z M 214.15625 56.492188 " fill-opacity="1" fill-rule="nonzero"/><g clip-path="url(#b34d0f04be)"><path fill="#057dcd" d="M 501.140625 523.679688 C 499.683594 523.671875 498.238281 523.523438 496.8125 523.234375 C 495.382812 522.945312 493.992188 522.515625 492.648438 521.953125 C 491.304688 521.390625 490.027344 520.703125 488.816406 519.886719 C 487.605469 519.074219 486.488281 518.148438 485.457031 517.113281 L 325.835938 357.605469 C 325.320312 357.089844 324.832031 356.550781 324.371094 355.984375 C 323.90625 355.421875 323.472656 354.835938 323.066406 354.230469 C 322.664062 353.625 322.289062 353 321.945312 352.359375 C 321.601562 351.714844 321.289062 351.058594 321.011719 350.382812 C 320.730469 349.710938 320.488281 349.023438 320.273438 348.328125 C 320.0625 347.628906 319.886719 346.921875 319.746094 346.207031 C 319.601562 345.492188 319.496094 344.773438 319.425781 344.046875 C 319.351562 343.320312 319.316406 342.59375 319.316406 341.863281 C 319.316406 341.136719 319.351562 340.410156 319.425781 339.683594 C 319.496094 338.957031 319.601562 338.238281 319.746094 337.523438 C 319.886719 336.808594 320.0625 336.101562 320.273438 335.402344 C 320.488281 334.707031 320.730469 334.019531 321.011719 333.347656 C 321.289062 332.671875 321.601562 332.015625 321.945312 331.371094 C 322.289062 330.730469 322.664062 330.105469 323.066406 329.5 C 323.472656 328.890625 323.90625 328.308594 324.371094 327.742188 C 324.832031 327.179688 325.320312 326.640625 325.835938 326.125 C 326.351562 325.609375 326.890625 325.121094 327.453125 324.65625 C 328.019531 324.195312 328.601562 323.761719 329.210938 323.355469 C 329.816406 322.953125 330.441406 322.578125 331.082031 322.234375 C 331.726562 321.890625 332.382812 321.578125 333.058594 321.300781 C 333.730469 321.019531 334.417969 320.777344 335.113281 320.5625 C 335.8125 320.351562 336.519531 320.175781 337.234375 320.035156 C 337.949219 319.890625 338.667969 319.785156 339.394531 319.710938 C 340.121094 319.640625 340.847656 319.605469 341.574219 319.605469 C 342.304688 319.605469 343.03125 319.640625 343.757812 319.710938 C 344.484375 319.785156 345.203125 319.890625 345.917969 320.035156 C 346.632812 320.175781 347.339844 320.351562 348.039062 320.5625 C 348.734375 320.777344 349.421875 321.019531 350.09375 321.300781 C 350.769531 321.578125 351.425781 321.890625 352.070312 322.234375 C 352.710938 322.578125 353.335938 322.953125 353.941406 323.355469 C 354.546875 323.761719 355.132812 324.195312 355.695312 324.65625 C 356.261719 325.121094 356.800781 325.609375 357.316406 326.125 L 516.828125 485.746094 C 517.59375 486.519531 518.304688 487.347656 518.949219 488.222656 C 519.597656 489.101562 520.179688 490.023438 520.691406 490.984375 C 521.203125 491.949219 521.640625 492.941406 522.007812 493.96875 C 522.375 494.996094 522.660156 496.046875 522.875 497.117188 C 523.085938 498.1875 523.21875 499.265625 523.269531 500.355469 C 523.324219 501.445312 523.296875 502.53125 523.1875 503.617188 C 523.082031 504.703125 522.894531 505.773438 522.628906 506.832031 C 522.363281 507.890625 522.023438 508.925781 521.609375 509.933594 C 521.191406 510.941406 520.703125 511.910156 520.144531 512.847656 C 519.582031 513.785156 518.957031 514.675781 518.265625 515.519531 C 517.578125 516.363281 516.828125 517.152344 516.019531 517.886719 C 515.214844 518.621094 514.359375 519.292969 513.453125 519.898438 C 512.546875 520.507812 511.601562 521.046875 510.617188 521.515625 C 509.632812 521.984375 508.621094 522.378906 507.578125 522.699219 C 506.535156 523.019531 505.472656 523.261719 504.394531 523.425781 C 503.316406 523.589844 502.234375 523.671875 501.140625 523.679688 Z M 501.140625 523.679688 " fill-opacity="1" fill-rule="nonzero"/></g></g></g></g></svg>