<svg xmlns="http://www.w3.org/2000/svg" xmlns:xlink="http://www.w3.org/1999/xlink" width="1024" zoomAndPan="magnify" viewBox="0 0 768 767.999994" height="1024" preserveAspectRatio="xMidYMid meet" version="1.0"><defs><filter x="0%" y="0%" width="100%" height="100%" id="bfb7a24ec2"><feColorMatrix values="0 0 0 0 1 0 0 0 0 1 0 0 0 0 1 0 0 0 1 0" color-interpolation-filters="sRGB"/></filter><clipPath id="7f9bd7a0b5"><path d="M 7.28125 128 L 149 128 L 149 567 L 7.28125 567 Z M 7.28125 128 " clip-rule="nonzero"/></clipPath><mask id="29ebabd869"><g filter="url(#bfb7a24ec2)"><rect x="-76.8" width="921.6" fill="#000000" y="-76.799999" height="921.599993" fill-opacity="0.7"/></g></mask><clipPath id="715387bd9a"><path d="M 1.324219 1.140625 L 434.824219 1.140625 L 434.824219 434.640625 L 1.324219 434.640625 Z M 1.324219 1.140625 " clip-rule="nonzero"/></clipPath><clipPath id="927ffb0519"><rect x="0" width="436" y="0" height="435"/></clipPath></defs><path fill="#11efe3" d="M 181.136719 566.972656 L 341.179688 566.996094 L 341.179688 362.433594 L 131.21875 362.40625 C 133.292969 439.707031 151.65625 510.570312 181.136719 566.972656 Z M 181.136719 566.972656 " fill-opacity="1" fill-rule="nonzero"/><path fill="#11efe3" d="M 198.414062 99.035156 L 341.179688 99.054688 L 341.179688 -0.21875 C 285.742188 5.367188 235.738281 42.183594 198.414062 99.035156 Z M 198.414062 99.035156 " fill-opacity="1" fill-rule="nonzero"/><path fill="#11efe3" d="M 131.21875 332.992188 L 341.179688 333.027344 L 341.179688 128.460938 L 181.167969 128.441406 C 151.6875 184.828125 133.308594 255.691406 131.21875 332.992188 Z M 131.21875 332.992188 " fill-opacity="1" fill-rule="nonzero"/><g clip-path="url(#7f9bd7a0b5)"><path fill="#11efe3" d="M 101.820312 362.398438 L 26.003906 362.390625 C 17.886719 362.390625 11.300781 355.804688 11.300781 347.6875 C 11.300781 339.570312 17.886719 332.984375 26.003906 332.984375 L 101.8125 332.992188 C 103.789062 256.933594 120.941406 186.597656 148.886719 128.441406 L 84.941406 128.433594 C 36.316406 188.394531 7.101562 264.710938 7.101562 347.746094 C 7.101562 430.738281 36.289062 507.019531 84.875 566.964844 L 148.847656 566.972656 C 120.925781 508.800781 103.78125 438.464844 101.820312 362.398438 Z M 101.820312 362.398438 " fill-opacity="1" fill-rule="nonzero"/></g><path fill="#11efe3" d="M 223.21875 25.238281 C 181.335938 42.535156 143.539062 67.753906 111.691406 99.027344 L 164.542969 99.035156 C 181.460938 70.28125 201.222656 45.324219 223.21875 25.238281 Z M 223.21875 25.238281 " fill-opacity="1" fill-rule="nonzero"/><path fill="#11efe3" d="M 164.507812 596.371094 L 111.613281 596.363281 C 143.472656 627.675781 181.296875 652.914062 223.21875 670.226562 C 201.199219 650.125 181.4375 625.144531 164.507812 596.371094 Z M 164.507812 596.371094 " fill-opacity="1" fill-rule="nonzero"/><path fill="#11efe3" d="M 547.261719 99.09375 L 600.15625 99.101562 C 568.304688 67.789062 530.480469 42.550781 488.566406 25.246094 C 510.570312 45.335938 530.339844 70.316406 547.261719 99.09375 Z M 547.261719 99.09375 " fill-opacity="1" fill-rule="nonzero"/><path fill="#11efe3" d="M 341.179688 695.683594 L 341.179688 596.402344 L 198.375 596.378906 C 235.699219 653.257812 285.726562 690.097656 341.179688 695.683594 Z M 341.179688 695.683594 " fill-opacity="1" fill-rule="nonzero"/><path fill="#11efe3" d="M 488.566406 670.226562 C 530.449219 652.925781 568.238281 627.71875 600.082031 596.445312 L 547.234375 596.4375 C 530.316406 625.183594 510.5625 650.140625 488.566406 670.226562 Z M 488.566406 670.226562 " fill-opacity="1" fill-rule="nonzero"/><path fill="#11efe3" d="M 626.878906 128.507812 L 562.90625 128.5 C 590.84375 186.664062 607.980469 257 609.941406 333.074219 L 685.761719 333.082031 C 693.875 333.082031 700.464844 339.667969 700.464844 347.785156 C 700.464844 355.898438 693.875 362.488281 685.761719 362.488281 L 609.949219 362.480469 C 607.980469 438.539062 590.828125 508.871094 562.882812 567.03125 L 626.828125 567.039062 C 675.453125 507.078125 704.660156 430.769531 704.660156 347.738281 C 704.660156 264.738281 675.476562 188.460938 626.878906 128.507812 Z M 626.878906 128.507812 " fill-opacity="1" fill-rule="nonzero"/><path fill="#11efe3" d="M 530.632812 128.492188 L 370.589844 128.46875 L 370.589844 333.027344 L 580.550781 333.058594 C 578.476562 255.753906 560.105469 184.894531 530.632812 128.492188 Z M 530.632812 128.492188 " fill-opacity="1" fill-rule="nonzero"/><path fill="#11efe3" d="M 370.589844 -0.21875 L 370.589844 99.0625 L 513.394531 99.085938 C 476.070312 42.199219 426.035156 5.359375 370.589844 -0.21875 Z M 370.589844 -0.21875 " fill-opacity="1" fill-rule="nonzero"/><path fill="#11efe3" d="M 580.550781 362.472656 L 370.589844 362.433594 L 370.589844 566.996094 L 530.609375 567.015625 C 560.089844 510.636719 578.460938 439.773438 580.550781 362.472656 Z M 580.550781 362.472656 " fill-opacity="1" fill-rule="nonzero"/><path fill="#11efe3" d="M 370.589844 596.40625 L 370.589844 695.683594 C 426.027344 690.105469 476.039062 653.28125 513.363281 596.429688 Z M 370.589844 596.40625 " fill-opacity="1" fill-rule="nonzero"/><g mask="url(#29ebabd869)"><g transform="matrix(1, 0, 0, 1, 319, 310)"><g clip-path="url(#927ffb0519)"><g clip-path="url(#715387bd9a)"><path fill="#057dcd" d="M 371.371094 64.628906 C 330.429688 23.6875 275.996094 1.140625 218.09375 1.140625 C 160.191406 1.140625 105.757812 23.6875 64.816406 64.628906 C 23.875 105.570312 1.324219 160.007812 1.324219 217.910156 C 1.324219 275.808594 23.875 330.246094 64.816406 371.1875 C 105.757812 412.128906 160.191406 434.675781 218.09375 434.675781 C 275.996094 434.675781 330.429688 412.128906 371.371094 371.1875 C 412.3125 330.246094 434.859375 275.8125 434.859375 217.910156 C 434.859375 160.003906 412.3125 105.570312 371.371094 64.628906 Z M 371.371094 64.628906 " fill-opacity="1" fill-rule="nonzero"/></g><path fill="#ffffff" d="M 269.863281 114.953125 C 270.710938 115.796875 271.535156 116.667969 272.339844 117.554688 C 273.144531 118.441406 273.925781 119.347656 274.6875 120.273438 C 275.449219 121.199219 276.183594 122.144531 276.898438 123.109375 C 277.613281 124.070312 278.300781 125.050781 278.96875 126.046875 C 279.632812 127.042969 280.273438 128.054688 280.890625 129.082031 C 281.503906 130.109375 282.097656 131.152344 282.660156 132.207031 C 283.226562 133.265625 283.765625 134.335938 284.277344 135.417969 C 284.789062 136.5 285.273438 137.59375 285.730469 138.703125 C 286.191406 139.808594 286.621094 140.925781 287.027344 142.054688 C 287.429688 143.183594 287.804688 144.320312 288.152344 145.46875 C 288.5 146.613281 288.820312 147.769531 289.109375 148.929688 C 289.402344 150.09375 289.664062 151.261719 289.898438 152.4375 C 290.132812 153.609375 290.335938 154.792969 290.511719 155.976562 C 290.6875 157.160156 290.835938 158.351562 290.953125 159.542969 C 291.070312 160.734375 291.15625 161.929688 291.21875 163.125 C 291.277344 164.324219 291.304688 165.519531 291.304688 166.71875 C 291.304688 167.917969 291.277344 169.113281 291.21875 170.3125 C 291.15625 171.507812 291.070312 172.703125 290.953125 173.894531 C 290.835938 175.085938 290.6875 176.277344 290.511719 177.460938 C 290.335938 178.644531 290.132812 179.828125 289.898438 181 C 289.664062 182.175781 289.402344 183.34375 289.109375 184.507812 C 288.820312 185.667969 288.5 186.824219 288.152344 187.96875 C 287.804688 189.117188 287.429688 190.253906 287.027344 191.382812 C 286.621094 192.511719 286.191406 193.628906 285.730469 194.734375 C 285.273438 195.84375 284.789062 196.9375 284.277344 198.019531 C 283.765625 199.101562 283.226562 200.171875 282.660156 201.230469 C 282.097656 202.285156 281.503906 203.328125 280.890625 204.355469 C 280.273438 205.382812 279.632812 206.394531 278.96875 207.390625 C 278.300781 208.386719 277.613281 209.367188 276.898438 210.328125 C 276.183594 211.292969 275.449219 212.238281 274.6875 213.164062 C 273.925781 214.089844 273.144531 214.996094 272.339844 215.882812 C 271.535156 216.769531 270.710938 217.640625 269.863281 218.484375 C 269.015625 219.332031 268.148438 220.160156 267.261719 220.964844 C 266.371094 221.769531 265.464844 222.550781 264.539062 223.3125 C 263.613281 224.070312 262.667969 224.808594 261.707031 225.523438 C 260.742188 226.234375 259.765625 226.925781 258.769531 227.589844 C 257.773438 228.257812 256.761719 228.898438 255.734375 229.511719 C 254.703125 230.128906 253.664062 230.71875 252.605469 231.285156 C 251.550781 231.847656 250.480469 232.386719 249.394531 232.898438 C 248.3125 233.414062 247.21875 233.898438 246.109375 234.355469 C 245.003906 234.816406 243.886719 235.246094 242.757812 235.648438 C 241.628906 236.054688 240.492188 236.429688 239.347656 236.777344 C 238.199219 237.125 237.046875 237.445312 235.882812 237.734375 C 234.722656 238.027344 233.550781 238.289062 232.378906 238.523438 C 231.203125 238.757812 230.023438 238.960938 228.835938 239.136719 C 227.652344 239.3125 226.464844 239.457031 225.269531 239.578125 C 224.078125 239.695312 222.882812 239.78125 221.6875 239.839844 C 220.492188 239.898438 219.292969 239.929688 218.09375 239.929688 C 216.898438 239.929688 215.699219 239.898438 214.503906 239.839844 C 213.304688 239.78125 212.113281 239.695312 210.917969 239.578125 C 209.726562 239.457031 208.539062 239.3125 207.351562 239.136719 C 206.167969 238.960938 204.988281 238.757812 203.8125 238.523438 C 202.636719 238.289062 201.46875 238.027344 200.304688 237.734375 C 199.144531 237.445312 197.988281 237.125 196.84375 236.777344 C 195.695312 236.429688 194.558594 236.054688 193.429688 235.648438 C 192.304688 235.246094 191.1875 234.816406 190.078125 234.355469 C 188.972656 233.898438 187.875 233.414062 186.792969 232.898438 C 185.710938 232.386719 184.640625 231.847656 183.585938 231.285156 C 182.527344 230.71875 181.484375 230.128906 180.457031 229.511719 C 179.429688 228.898438 178.417969 228.257812 177.421875 227.589844 C 176.425781 226.925781 175.445312 226.234375 174.484375 225.523438 C 173.519531 224.808594 172.578125 224.070312 171.652344 223.3125 C 170.726562 222.550781 169.816406 221.769531 168.929688 220.964844 C 168.042969 220.160156 167.175781 219.332031 166.328125 218.484375 C 165.480469 217.640625 164.65625 216.769531 163.851562 215.882812 C 163.046875 214.996094 162.261719 214.089844 161.503906 213.164062 C 160.742188 212.238281 160.007812 211.292969 159.292969 210.328125 C 158.578125 209.367188 157.890625 208.386719 157.222656 207.390625 C 156.558594 206.394531 155.917969 205.382812 155.300781 204.355469 C 154.683594 203.328125 154.09375 202.285156 153.53125 201.230469 C 152.964844 200.171875 152.425781 199.101562 151.914062 198.019531 C 151.402344 196.9375 150.917969 195.84375 150.457031 194.734375 C 150 193.628906 149.566406 192.511719 149.164062 191.382812 C 148.761719 190.253906 148.386719 189.117188 148.039062 187.96875 C 147.691406 186.824219 147.371094 185.667969 147.078125 184.507812 C 146.789062 183.34375 146.523438 182.175781 146.292969 181 C 146.058594 179.828125 145.851562 178.644531 145.675781 177.460938 C 145.5 176.277344 145.355469 175.085938 145.238281 173.894531 C 145.121094 172.703125 145.03125 171.507812 144.972656 170.3125 C 144.914062 169.113281 144.886719 167.917969 144.886719 166.71875 C 144.886719 165.519531 144.914062 164.324219 144.972656 163.125 C 145.03125 161.929688 145.121094 160.734375 145.238281 159.542969 C 145.355469 158.351562 145.5 157.160156 145.675781 155.976562 C 145.851562 154.792969 146.058594 153.609375 146.292969 152.4375 C 146.523438 151.261719 146.789062 150.09375 147.078125 148.929688 C 147.371094 147.769531 147.691406 146.613281 148.039062 145.46875 C 148.386719 144.320312 148.761719 143.183594 149.164062 142.054688 C 149.566406 140.925781 150 139.808594 150.457031 138.703125 C 150.917969 137.59375 151.402344 136.5 151.914062 135.417969 C 152.425781 134.335938 152.964844 133.265625 153.53125 132.207031 C 154.09375 131.152344 154.683594 130.109375 155.300781 129.082031 C 155.917969 128.054688 156.558594 127.042969 157.222656 126.046875 C 157.890625 125.050781 158.578125 124.070312 159.292969 123.109375 C 160.007812 122.144531 160.742188 121.199219 161.503906 120.273438 C 162.261719 119.347656 163.046875 118.441406 163.851562 117.554688 C 164.65625 116.667969 165.480469 115.796875 166.328125 114.953125 C 167.175781 114.105469 168.042969 113.277344 168.929688 112.472656 C 169.816406 111.667969 170.726562 110.886719 171.652344 110.125 C 172.578125 109.367188 173.523438 108.628906 174.484375 107.914062 C 175.445312 107.203125 176.425781 106.511719 177.421875 105.847656 C 178.417969 105.179688 179.429688 104.539062 180.457031 103.925781 C 181.484375 103.308594 182.527344 102.71875 183.585938 102.152344 C 184.640625 101.589844 185.710938 101.050781 186.792969 100.539062 C 187.875 100.023438 188.972656 99.539062 190.078125 99.082031 C 191.1875 98.621094 192.304688 98.191406 193.429688 97.789062 C 194.558594 97.382812 195.695312 97.007812 196.84375 96.660156 C 197.988281 96.3125 199.144531 95.992188 200.304688 95.703125 C 201.46875 95.410156 202.636719 95.148438 203.8125 94.914062 C 204.988281 94.679688 206.167969 94.476562 207.351562 94.300781 C 208.539062 94.125 209.726562 93.980469 210.917969 93.859375 C 212.113281 93.742188 213.304688 93.65625 214.503906 93.597656 C 215.699219 93.539062 216.898438 93.507812 218.09375 93.507812 C 219.292969 93.507812 220.492188 93.539062 221.6875 93.597656 C 222.882812 93.65625 224.078125 93.742188 225.269531 93.859375 C 226.464844 93.980469 227.652344 94.125 228.835938 94.300781 C 230.023438 94.476562 231.203125 94.679688 232.378906 94.914062 C 233.550781 95.148438 234.722656 95.410156 235.882812 95.703125 C 237.046875 95.992188 238.199219 96.3125 239.347656 96.660156 C 240.492188 97.007812 241.628906 97.382812 242.757812 97.789062 C 243.886719 98.191406 245.003906 98.621094 246.109375 99.082031 C 247.21875 99.539062 248.3125 100.023438 249.394531 100.539062 C 250.480469 101.050781 251.550781 101.589844 252.605469 102.152344 C 253.664062 102.71875 254.703125 103.308594 255.734375 103.925781 C 256.761719 104.539062 257.773438 105.179688 258.769531 105.847656 C 259.765625 106.511719 260.742188 107.203125 261.707031 107.914062 C 262.667969 108.628906 263.613281 109.367188 264.539062 110.125 C 265.464844 110.886719 266.371094 111.667969 267.261719 112.472656 C 268.148438 113.277344 269.015625 114.105469 269.863281 114.953125 Z M 269.863281 114.953125 " fill-opacity="1" fill-rule="nonzero"/><path fill="#ffffff" d="M 220.210938 272.460938 L 215.980469 272.460938 C 156.160156 272.460938 105.785156 312.847656 90.605469 367.839844 C 124.984375 397.117188 169.507812 414.8125 218.09375 414.8125 C 266.679688 414.8125 311.203125 397.117188 345.582031 367.839844 C 330.402344 312.851562 280.027344 272.460938 220.207031 272.460938 Z M 220.210938 272.460938 " fill-opacity="1" fill-rule="nonzero"/></g></g></g></svg>